<svg xmlns="http://www.w3.org/2000/svg" xmlns:xlink="http://www.w3.org/1999/xlink" width="500" zoomAndPan="magnify" viewBox="0 0 375 374.999991" height="500" preserveAspectRatio="xMidYMid meet" version="1.0"><defs><g/><clipPath id="cac350f8f4"><path d="M 251 32 L 267.570312 32 L 267.570312 39 L 251 39 Z M 251 32 " clip-rule="nonzero"/></clipPath><clipPath id="d6c3704aaa"><path d="M 158 165 L 164 165 L 164 173.296875 L 158 173.296875 Z M 158 165 " clip-rule="nonzero"/></clipPath><clipPath id="ad8dd5eace"><path d="M 165 166 L 169 166 L 169 173.296875 L 165 173.296875 Z M 165 166 " clip-rule="nonzero"/></clipPath><clipPath id="2b96e3dc4f"><path d="M 128.070312 23.296875 L 267 23.296875 L 267 167 L 128.070312 167 Z M 128.070312 23.296875 " clip-rule="nonzero"/></clipPath></defs><g fill="#ffffff" fill-opacity="1"><g transform="translate(55.637594, 236.643701)"><g><path d="M 69.8125 0 L 50.171875 0 L 50.171875 -29.484375 L 27.453125 -29.484375 L 27.453125 0 L 7.8125 0 L 7.8125 -72.328125 L 27.453125 -72.328125 L 27.453125 -45.515625 L 50.171875 -45.515625 L 50.171875 -72.328125 L 69.8125 -72.328125 Z M 69.8125 0 "/></g></g></g><g fill="#ffffff" fill-opacity="1"><g transform="translate(123.132937, 236.643701)"><g><path d="M 52.203125 0 L 48.640625 -13.5625 L 25.140625 -13.5625 L 21.46875 0 L 0 0 L 23.59375 -72.625 L 49.671875 -72.625 L 73.578125 0 Z M 44.578125 -29.59375 L 41.46875 -41.46875 C 40.738281 -44.101562 39.851562 -47.515625 38.8125 -51.703125 C 37.769531 -55.890625 37.085938 -58.890625 36.765625 -60.703125 C 36.460938 -59.023438 35.875 -56.253906 35 -52.390625 C 34.125 -48.535156 32.1875 -40.9375 29.1875 -29.59375 Z M 44.578125 -29.59375 "/></g></g></g><g fill="#ffffff" fill-opacity="1"><g transform="translate(186.571192, 236.643701)"><g><path d="M 27.359375 -26.328125 L 27.359375 0 L 7.8125 0 L 7.8125 -72.328125 L 31.515625 -72.328125 C 51.171875 -72.328125 61 -65.203125 61 -50.953125 C 61 -42.578125 56.910156 -36.097656 48.734375 -31.515625 L 69.8125 0 L 47.640625 0 L 32.3125 -26.328125 Z M 27.359375 -41.015625 L 31.015625 -41.015625 C 37.847656 -41.015625 41.265625 -44.035156 41.265625 -50.078125 C 41.265625 -55.054688 37.914062 -57.546875 31.21875 -57.546875 L 27.359375 -57.546875 Z M 27.359375 -41.015625 "/></g></g></g><g fill="#ffffff" fill-opacity="1"><g transform="translate(245.012296, 236.643701)"><g><path d="M 69.21875 -37.703125 C 69.21875 -25.628906 65.894531 -16.328125 59.25 -9.796875 C 52.601562 -3.265625 43.257812 0 31.21875 0 L 7.8125 0 L 7.8125 -72.328125 L 32.859375 -72.328125 C 44.460938 -72.328125 53.421875 -69.359375 59.734375 -63.421875 C 66.054688 -57.484375 69.21875 -48.910156 69.21875 -37.703125 Z M 48.9375 -37.015625 C 48.9375 -43.640625 47.625 -48.550781 45 -51.75 C 42.375 -54.945312 38.390625 -56.546875 33.046875 -56.546875 L 27.359375 -56.546875 L 27.359375 -16.03125 L 31.71875 -16.03125 C 37.65625 -16.03125 42.007812 -17.753906 44.78125 -21.203125 C 47.550781 -24.648438 48.9375 -29.921875 48.9375 -37.015625 Z M 48.9375 -37.015625 "/></g></g></g><g fill="#ffffff" fill-opacity="1"><g transform="translate(85.586083, 321.485305)"><g><path d="M 36.171875 -42.359375 L 66.34375 -42.359375 L 58.078125 -3.015625 C 49.835938 -0.347656 41.25 0.984375 32.3125 0.984375 C 23.695312 0.984375 17.015625 -1.519531 12.265625 -6.53125 C 7.515625 -11.539062 5.140625 -18.648438 5.140625 -27.859375 C 5.140625 -36.660156 6.953125 -44.609375 10.578125 -51.703125 C 14.210938 -58.796875 19.1875 -64.195312 25.5 -67.90625 C 31.820312 -71.613281 39.171875 -73.46875 47.546875 -73.46875 C 56.316406 -73.46875 63.707031 -71.703125 69.71875 -68.171875 L 62.4375 -52.890625 C 57.394531 -55.859375 52.347656 -57.34375 47.296875 -57.34375 C 42.941406 -57.34375 39.085938 -56.144531 35.734375 -53.75 C 32.390625 -51.363281 29.71875 -47.828125 27.71875 -43.140625 C 25.726562 -38.460938 24.734375 -33.46875 24.734375 -28.15625 C 24.734375 -19.445312 28.179688 -15.09375 35.078125 -15.09375 C 37.160156 -15.09375 39.351562 -15.320312 41.65625 -15.78125 L 44.1875 -27.265625 L 32.859375 -27.265625 Z M 36.171875 -42.359375 "/></g></g></g><g fill="#ffffff" fill-opacity="1"><g transform="translate(146.20416, 321.485305)"><g><path d="M 32.5 -45.515625 L 47.9375 -72.328125 L 69.515625 -72.328125 L 39.234375 -28.046875 L 33.25 0 L 13.90625 0 L 19.84375 -28.046875 L 8.109375 -72.328125 L 28.046875 -72.328125 Z M 32.5 -45.515625 "/></g></g></g><g fill="#ffffff" fill-opacity="1"><g transform="translate(197.27325, 321.485305)"><g><path d="M 29.09375 0 L 29.09375 -51.90625 L 28.703125 -51.90625 C 26.484375 -38.144531 25.0625 -29.695312 24.4375 -26.5625 L 18.84375 0 L 1.625 0 L 16.921875 -72.328125 L 42.546875 -72.328125 L 42.546875 -20.984375 L 42.953125 -20.984375 L 66.59375 -72.328125 L 92.625 -72.328125 L 77.140625 0 L 59.765625 0 L 65.5625 -27.15625 C 67.207031 -34.675781 68.988281 -41.867188 70.90625 -48.734375 L 71.640625 -51.90625 L 71.25 -51.90625 L 47.40625 0 Z M 29.09375 0 "/></g></g></g><g clip-path="url(#cac350f8f4)"><path fill="#a736ea" d="M 267.09375 32.214844 C 267.570312 33 265.898438 33.273438 265.25 33.546875 C 264.5 33.851562 264.058594 34.292969 263.410156 34.292969 C 262.042969 34.90625 260.441406 35.589844 259.074219 36.132812 C 258.667969 36.304688 258.257812 36.375 257.917969 36.542969 C 257.335938 36.816406 256.960938 37.121094 256.175781 37.394531 C 255.800781 37.53125 255.492188 37.871094 255.085938 38.042969 C 255.015625 38.078125 254.878906 38.007812 254.8125 38.042969 C 254.027344 38.28125 253.070312 38.792969 251.910156 38.621094 C 251.707031 38.210938 252.015625 38.179688 252.390625 37.941406 C 252.558594 37.839844 252.730469 37.632812 252.902344 37.53125 C 253.140625 37.394531 253.34375 37.394531 253.550781 37.292969 C 253.617188 37.257812 253.652344 37.089844 253.71875 37.054688 C 253.957031 36.917969 254.402344 36.882812 254.742188 36.714844 C 254.914062 36.613281 255.050781 36.441406 255.222656 36.375 C 255.527344 36.238281 255.835938 36.339844 255.972656 36.03125 C 257.644531 35.589844 258.769531 34.636719 260.578125 34.363281 C 261.125 34.089844 261.636719 33.785156 262.351562 33.714844 C 262.863281 33.375 263.511719 33.171875 264.261719 33.066406 C 265.082031 32.695312 266.136719 32.25 267.09375 32.214844 Z M 267.09375 32.214844 " fill-opacity="1" fill-rule="evenodd"/></g><path fill="#a736ea" d="M 228.578125 38.996094 C 228.882812 40.496094 227.859375 40.292969 226.496094 39.984375 C 226.289062 39.949219 226.121094 39.8125 225.984375 39.8125 C 226.050781 39.507812 225.675781 39.710938 225.746094 39.40625 C 225.4375 39.472656 225.097656 39.679688 225.234375 39.984375 C 224.652344 40.15625 224.789062 41.074219 224.3125 41.382812 C 224.347656 41.519531 224.414062 41.585938 224.378906 41.789062 C 224.074219 41.890625 224.039062 42.265625 223.730469 42.371094 C 223.050781 42.574219 222.164062 41.996094 221.582031 41.859375 C 221.546875 40.800781 221.71875 39.882812 222.4375 39.269531 C 222.46875 39.097656 222.367188 39.132812 222.367188 38.996094 C 222.8125 38.894531 222.84375 38.417969 223.390625 38.417969 C 223.527344 38.417969 223.425781 38.210938 223.460938 38.144531 C 224.722656 37.941406 225.746094 37.632812 227.109375 37.871094 C 227.3125 38.417969 227.996094 38.453125 228.371094 38.792969 C 228.335938 38.894531 228.371094 38.996094 228.578125 38.996094 Z M 228.578125 38.996094 " fill-opacity="1" fill-rule="evenodd"/><path fill="#a736ea" d="M 245.15625 41.652344 C 244.953125 42.878906 243.484375 42.8125 242.734375 43.492188 C 242.15625 43.425781 241.8125 43.902344 241.335938 44.074219 C 241.164062 44.140625 240.996094 44.074219 240.859375 44.140625 C 240.484375 44.3125 240.175781 44.617188 239.835938 44.789062 C 239.527344 44.925781 239.117188 44.824219 238.914062 45.195312 C 238.230469 45.195312 238.027344 45.640625 237.480469 45.777344 C 237.242188 46.152344 236.832031 46.421875 236.390625 46.421875 C 235.09375 47.308594 233.625 48.058594 231.988281 48.671875 C 231.304688 49.523438 229.601562 49.898438 228.40625 49.59375 C 228.472656 49.25 228.542969 49.117188 228.472656 48.671875 C 229.054688 48.46875 229.257812 47.855469 230.144531 47.921875 C 231.648438 47.003906 233.285156 46.253906 235.125 45.675781 C 235.195312 45.640625 235.160156 45.539062 235.195312 45.4375 C 235.773438 45.195312 236.320312 45.195312 236.933594 44.855469 C 237.140625 44.753906 237.277344 44.515625 237.515625 44.378906 C 237.652344 44.3125 237.855469 44.34375 238.027344 44.277344 C 238.503906 44.074219 239.015625 43.628906 239.765625 43.597656 C 239.9375 43.117188 241.164062 43.222656 241.507812 42.746094 C 242.769531 42.472656 243.621094 41.484375 245.15625 41.652344 Z M 245.15625 41.652344 " fill-opacity="1" fill-rule="evenodd"/><path fill="#a736ea" d="M 264.363281 43.085938 C 261.363281 43.152344 257.644531 43.390625 253.957031 43.425781 C 253.175781 43.425781 252.320312 43.5625 251.605469 43.253906 C 252.152344 42.878906 252.933594 42.8125 253.6875 42.746094 C 256.550781 42.503906 259.996094 42.300781 262.691406 42.097656 C 263.066406 42.0625 263.441406 41.925781 263.785156 41.925781 C 263.988281 41.925781 265.898438 41.925781 265.863281 42.4375 C 265.863281 43.015625 264.464844 42.8125 264.363281 43.085938 Z M 264.363281 43.085938 " fill-opacity="1" fill-rule="evenodd"/><path fill="#a736ea" d="M 251.023438 42.503906 C 251.261719 44.039062 250.34375 45.742188 249.796875 47.277344 C 249.558594 47.308594 249.59375 47.617188 249.386719 47.683594 C 249.285156 48.605469 248.398438 49.183594 248.160156 50.171875 C 247.441406 51.023438 247 52.113281 246.25 52.929688 C 246.28125 53.101562 246.179688 53.136719 246.179688 53.273438 C 244.851562 54.804688 244.03125 56.507812 242.53125 57.871094 C 242.425781 57.972656 242.597656 58.042969 242.460938 58.144531 C 241.269531 59.097656 240.585938 60.5625 239.21875 61.378906 C 239.21875 61.484375 239.21875 61.585938 239.21875 61.652344 C 238.164062 62.605469 237.140625 63.5625 236.117188 64.550781 C 236.015625 64.550781 235.910156 64.550781 235.84375 64.550781 C 235.398438 65.195312 234.648438 65.570312 234 66.046875 C 233.832031 66.285156 233.523438 66.628906 233.25 66.558594 C 232.328125 67.410156 231.339844 68.195312 230.144531 68.738281 C 229.566406 69.320312 228.882812 69.761719 228.066406 70.070312 C 227.554688 70.375 227.246094 70.851562 226.496094 70.921875 C 225.8125 71.261719 225.128906 71.839844 224.3125 72.179688 C 223.902344 72.113281 223.699219 72.28125 223.492188 72.453125 C 222.640625 72.28125 222.027344 72.519531 221.480469 72.113281 C 221.515625 71.703125 221.546875 71.636719 221.546875 71.261719 C 221.820312 71.226562 221.855469 71.160156 222.027344 71.160156 C 222.164062 71.160156 221.957031 70.988281 222.09375 70.921875 C 222.675781 70.375 223.765625 70.308594 224.449219 69.898438 C 224.890625 69.25 226.121094 69.421875 226.53125 68.738281 C 227.28125 68.671875 227.554688 68.058594 228.304688 67.988281 C 228.578125 67.546875 229.328125 67.546875 229.53125 67.003906 C 230.144531 66.628906 230.828125 66.390625 231.375 66.015625 C 231.578125 65.878906 231.542969 65.707031 231.714844 65.535156 C 231.953125 65.296875 232.363281 65.195312 232.703125 65.027344 C 232.808594 64.582031 233.488281 64.753906 233.523438 64.207031 C 233.832031 64.207031 233.832031 63.902344 234.171875 63.9375 C 234.445312 63.664062 234.613281 63.253906 235.160156 63.117188 C 235.570312 62.640625 235.980469 62.164062 236.59375 61.890625 C 236.695312 61.789062 236.59375 61.753906 236.59375 61.617188 C 237.171875 61.484375 237.207031 60.835938 237.820312 60.765625 C 237.890625 60.699219 237.925781 60.5625 237.925781 60.425781 C 238.46875 60.085938 238.84375 59.609375 239.1875 59.097656 C 239.527344 58.996094 239.800781 58.792969 239.867188 58.417969 C 240.242188 58.179688 240.585938 57.90625 240.722656 57.429688 C 240.859375 57.394531 240.890625 57.292969 241.0625 57.328125 C 241.402344 56.609375 241.949219 56.101562 242.496094 55.589844 C 242.460938 55.417969 242.5625 55.382812 242.5625 55.246094 C 242.734375 55.144531 242.835938 55.042969 243.042969 54.976562 C 243.382812 53.953125 244.167969 53.679688 244.542969 52.660156 C 244.714844 52.554688 244.851562 52.421875 245.019531 52.316406 C 245.054688 52.179688 244.917969 52.179688 244.953125 52.046875 C 245.804688 51.363281 245.976562 50 246.863281 49.320312 C 246.792969 48.808594 247.375 48.261719 247.613281 47.753906 C 247.648438 47.683594 247.578125 47.582031 247.613281 47.515625 C 247.816406 47.171875 248.261719 47.105469 248.023438 46.695312 C 248.601562 46.082031 248.570312 45.027344 249.183594 44.34375 C 249.046875 43.800781 249.457031 43.359375 249.457031 42.746094 C 249.863281 42.574219 250.546875 42.265625 251.023438 42.503906 Z M 251.023438 42.503906 " fill-opacity="1" fill-rule="evenodd"/><path fill="#a736ea" d="M 245.738281 43.324219 C 245.769531 43.699219 245.769531 43.664062 245.667969 43.972656 C 244.132812 44.6875 242.9375 45.707031 241.4375 46.457031 C 241.335938 46.730469 241.0625 46.902344 240.757812 46.96875 C 239.324219 47.921875 237.820312 48.84375 236.253906 49.695312 C 236.046875 49.933594 235.84375 50.171875 235.398438 50.171875 C 235.023438 50.613281 234.34375 50.921875 233.660156 51.328125 C 232.703125 51.875 231.816406 52.863281 230.179688 52.25 C 230.144531 51.226562 231.542969 51.125 232.363281 50.648438 C 232.601562 50.238281 233.386719 49.933594 234.035156 49.730469 C 235.09375 48.671875 236.765625 48.230469 237.890625 47.242188 C 238.707031 47.207031 238.878906 46.492188 239.628906 46.390625 C 239.699219 46.21875 239.835938 46.183594 239.902344 46.050781 C 240.074219 46.082031 240.109375 45.945312 240.3125 45.980469 C 241.402344 44.890625 243.109375 44.414062 244.40625 43.5625 C 244.984375 43.527344 245.292969 43.222656 245.738281 43.324219 Z M 245.738281 43.324219 " fill-opacity="1" fill-rule="evenodd"/><path fill="#a736ea" d="M 245.738281 45.640625 C 245.976562 46.015625 245.429688 46.59375 245.089844 46.96875 C 244.679688 47.410156 244.066406 47.820312 243.519531 48.296875 C 242.597656 49.082031 241.507812 49.730469 240.925781 50.546875 C 240.757812 50.511719 240.789062 50.714844 240.585938 50.648438 C 240.140625 51.398438 239.289062 51.839844 238.574219 52.421875 C 238.0625 52.863281 237.550781 53.375 237.003906 53.816406 C 236.695312 54.054688 236.285156 54.261719 235.980469 54.5 C 235.433594 54.941406 234.992188 55.316406 234.308594 55.726562 C 233.761719 56.03125 233.421875 56.339844 232.566406 55.996094 C 232.464844 55.792969 232.601562 55.65625 232.636719 55.417969 C 233.046875 55.28125 233.351562 55.007812 233.558594 54.667969 C 235.398438 53.851562 236.59375 52.421875 238.300781 51.433594 C 238.300781 51.328125 238.230469 51.296875 238.230469 51.195312 C 238.742188 51.023438 238.980469 50.546875 239.492188 50.375 C 240.722656 48.875 242.667969 47.957031 244.066406 46.390625 C 244.578125 46.320312 244.542969 45.980469 244.882812 45.707031 C 245.257812 45.808594 245.363281 45.605469 245.738281 45.640625 Z M 245.738281 45.640625 " fill-opacity="1" fill-rule="evenodd"/><path fill="#a736ea" d="M 226.632812 86.796875 C 226.667969 87.34375 227.246094 87.34375 227.3125 87.820312 C 227.585938 87.851562 227.960938 87.785156 227.960938 88.089844 C 228.816406 88.226562 229.667969 88.296875 230.144531 88.570312 C 231.75 88.328125 233.320312 88.636719 234.71875 88.738281 C 235.332031 88.808594 235.980469 88.808594 236.457031 89.214844 C 237.039062 89.011719 237.140625 89.554688 237.855469 89.488281 C 237.925781 89.589844 237.925781 89.625 237.855469 89.726562 C 238.539062 90.136719 239.253906 90.339844 240.003906 90.75 C 240.277344 91.15625 240.960938 91.703125 240.277344 92.078125 C 239.355469 92.589844 237.308594 91.703125 236.695312 91.429688 C 236.59375 90.886719 236.117188 91.023438 235.605469 90.953125 C 235.535156 90.851562 235.535156 90.816406 235.605469 90.714844 C 235.296875 90.75 235.195312 90.613281 234.921875 90.648438 C 234.855469 90.578125 234.855469 90.441406 234.820312 90.375 C 233.933594 90.476562 233.113281 90.066406 232.296875 90.035156 C 231.511719 90 230.761719 90.035156 229.976562 89.964844 C 229.359375 89.929688 228.78125 89.691406 228.132812 89.863281 C 227.28125 89.761719 226.699219 89.386719 225.8125 89.285156 C 225.949219 88.941406 225.472656 89.011719 225.300781 88.875 C 225.199219 88.808594 225.128906 88.5 225.027344 88.398438 C 224.960938 88.328125 224.753906 88.363281 224.753906 88.328125 C 224.550781 88.125 224.617188 87.886719 224.347656 87.75 C 224.3125 87.613281 224.378906 87.613281 224.414062 87.511719 C 223.664062 86.695312 223.5625 85.296875 223.152344 84.277344 C 223.152344 84.171875 223.1875 84.070312 223.253906 84.039062 C 223.015625 83.832031 222.878906 83.355469 222.980469 83.015625 C 222.878906 83.015625 222.640625 82.332031 222.640625 82.027344 C 222.640625 81.957031 222.742188 81.855469 222.742188 81.855469 C 222.707031 81.753906 222.605469 81.789062 222.570312 81.753906 C 222.539062 81.652344 222.675781 81.617188 222.640625 81.515625 C 222.402344 80.9375 222.058594 80.222656 222.128906 79.539062 C 221.855469 79.097656 221.820312 78.652344 221.71875 78.210938 C 221.582031 78.109375 221.480469 77.835938 221.617188 77.699219 C 221.277344 77.085938 221.277344 76.371094 220.933594 75.859375 C 220.933594 75.757812 220.96875 75.722656 221.035156 75.691406 C 220.730469 75.417969 220.523438 74.804688 220.523438 74.429688 C 220.523438 74.359375 220.421875 74.394531 220.355469 74.359375 C 220.21875 73.816406 219.980469 73.167969 219.671875 72.625 C 219.46875 72.316406 219.023438 72.078125 219.160156 71.636719 C 220.695312 71.429688 221.445312 72.761719 221.820312 73.714844 C 221.957031 73.953125 222.332031 74.226562 222.230469 74.53125 C 222.570312 74.839844 222.878906 75.382812 222.878906 75.859375 C 222.980469 75.929688 223.050781 76.03125 223.152344 76.097656 C 223.253906 77.019531 223.835938 77.734375 223.835938 78.621094 C 224.003906 78.757812 224.175781 78.996094 224.074219 79.265625 C 224.449219 79.777344 224.449219 80.425781 224.585938 81.105469 C 224.890625 81.585938 225.0625 82.300781 225.0625 82.777344 C 225.335938 83.117188 225.402344 83.527344 225.402344 83.933594 C 225.675781 84.410156 225.984375 85.367188 226.152344 85.910156 C 226.152344 86.011719 226.359375 85.945312 226.394531 86.011719 C 226.222656 86.523438 226.222656 86.695312 226.632812 86.796875 Z M 226.632812 86.796875 " fill-opacity="1" fill-rule="evenodd"/><path fill="#a736ea" d="M 185.011719 89.148438 C 185.316406 91.261719 185.589844 93.40625 186.339844 95.210938 C 186.339844 95.28125 186.441406 95.246094 186.511719 95.28125 C 186.886719 96.472656 187.636719 97.257812 187.945312 98.277344 C 187.980469 98.378906 188.113281 98.449219 188.21875 98.449219 C 188.148438 99.265625 189.378906 99.574219 189.308594 100.425781 C 189.648438 100.800781 190.230469 100.96875 190.332031 101.445312 C 190.707031 101.71875 191.355469 101.992188 191.355469 102.433594 C 191.492188 102.46875 191.5625 102.570312 191.765625 102.539062 C 191.730469 102.878906 191.96875 103.082031 192.449219 103.046875 C 192.480469 103.183594 192.585938 103.253906 192.550781 103.457031 C 193.300781 103.523438 193.4375 104.242188 194.289062 104.207031 C 194.289062 104.445312 194.390625 104.582031 194.800781 104.546875 C 195.007812 105.023438 195.621094 105.058594 196.132812 105.230469 C 196.167969 105.296875 196.199219 105.398438 196.199219 105.5 C 197.394531 105.46875 198.484375 106.082031 199.679688 106.320312 C 200.667969 106.488281 201.660156 106.625 202.683594 106.558594 C 203.332031 106.523438 203.980469 106.660156 204.59375 106.558594 C 205.855469 106.351562 206.980469 105.808594 208.277344 105.636719 C 208.347656 105.601562 208.515625 105.601562 208.449219 105.398438 C 208.722656 105.363281 208.890625 105.230469 209.265625 105.296875 C 210.152344 104.820312 211.074219 104.375 212.269531 104.207031 C 213.804688 103.390625 215.679688 103.183594 217.453125 103.117188 C 217.695312 103.492188 217.761719 103.558594 217.796875 103.933594 C 217.625 103.96875 217.589844 104.105469 217.523438 104.207031 C 217.421875 104.207031 217.316406 104.207031 217.25 104.207031 C 216.804688 104.648438 216.023438 104.648438 215.40625 104.785156 C 214.964844 105.230469 213.804688 104.855469 213.394531 105.433594 C 212.304688 105.738281 211.210938 105.976562 210.289062 106.523438 C 209.503906 106.695312 208.617188 107.070312 207.628906 107.339844 C 207.015625 107.511719 206.230469 107.476562 205.546875 107.683594 C 203.808594 108.191406 201.761719 107.851562 199.714844 107.921875 C 198.078125 107.988281 196.574219 107.273438 195.039062 107.101562 C 195.039062 107.035156 195.039062 107 195.039062 106.933594 C 193.984375 106.660156 192.925781 106.046875 191.9375 105.773438 C 191.902344 105.636719 191.96875 105.636719 192.003906 105.535156 C 191.320312 105.023438 190.230469 104.820312 189.921875 104.105469 C 189.855469 104.070312 189.683594 103.933594 189.410156 104.003906 C 189.378906 103.933594 189.34375 103.832031 189.34375 103.730469 C 188.558594 103.695312 188.59375 102.84375 187.945312 102.707031 C 187.945312 102.605469 187.945312 102.503906 187.945312 102.433594 C 187.46875 102.296875 187.398438 101.753906 186.957031 101.582031 C 186.957031 101.515625 186.957031 101.414062 187.023438 101.414062 C 186.339844 101.070312 186.445312 100.117188 185.929688 99.84375 C 186.035156 99.265625 185.417969 99.199219 185.589844 98.753906 C 185.214844 98.378906 184.941406 97.597656 184.90625 97.085938 C 184.429688 96.574219 184.328125 95.6875 184.226562 95.074219 C 183.714844 93.203125 183.644531 91.226562 184.292969 89.351562 C 184.5 89.214844 184.667969 89.113281 185.011719 89.148438 Z M 185.011719 89.148438 " fill-opacity="1" fill-rule="evenodd"/><path fill="#a736ea" d="M 222.128906 97.871094 C 222.195312 97.765625 222.09375 97.632812 222.195312 97.460938 C 224.515625 96.472656 227.996094 95.824219 230.625 95.792969 C 231 95.792969 231.441406 95.859375 231.785156 95.960938 C 231.886719 96.167969 231.75 96.234375 231.851562 96.4375 C 231.066406 96.746094 230.351562 96.8125 229.429688 96.949219 C 228.234375 97.394531 227.074219 97.800781 225.746094 97.871094 C 224.960938 98.277344 224.039062 98.277344 222.8125 98.277344 C 222.742188 98.652344 223.289062 98.890625 223.5625 99.128906 C 223.460938 99.472656 223.902344 99.503906 223.800781 99.980469 C 223.867188 100.117188 224.039062 100.152344 224.074219 100.253906 C 224.515625 102.84375 224.859375 105.125 224.722656 107.683594 C 224.3125 108.023438 223.664062 107.648438 223.152344 107.75 C 223.082031 107.273438 222.777344 106.523438 222.914062 106.082031 C 222.503906 104.511719 222.570312 103.285156 222.265625 101.925781 C 222.058594 101.207031 221.546875 100.492188 221.445312 99.84375 C 221.035156 99.84375 220.96875 99.367188 220.765625 99.164062 C 220.628906 99.027344 220.390625 99.164062 220.492188 98.824219 C 220.421875 98.753906 220.285156 98.753906 220.148438 98.753906 C 219.945312 98.109375 218.921875 98.003906 218.75 97.496094 C 218 97.050781 216.875 96.746094 216.328125 96.269531 C 214.554688 95.894531 213.191406 94.835938 211.550781 94.53125 C 210.394531 93.917969 209.027344 93.542969 207.730469 93.03125 C 207.59375 92.691406 207.289062 92.519531 206.8125 92.519531 C 206.46875 92.246094 206.164062 91.976562 205.71875 91.839844 C 205.652344 91.566406 205.480469 91.429688 205.308594 91.261719 C 205.242188 90.78125 205.515625 90.886719 205.820312 90.851562 C 206.402344 91.226562 207.050781 91.53125 207.800781 91.769531 C 208.449219 92.179688 209.335938 92.351562 210.050781 92.691406 C 210.769531 93.101562 211.585938 93.203125 212.234375 93.609375 C 212.507812 93.609375 212.816406 93.609375 212.882812 93.847656 C 213.191406 93.847656 213.601562 93.78125 213.566406 94.121094 C 215.101562 94.359375 216.363281 95.144531 217.828125 95.621094 C 219.230469 96.40625 220.96875 96.847656 222.128906 97.871094 Z M 222.128906 97.871094 " fill-opacity="1" fill-rule="evenodd"/><path fill="#a736ea" d="M 235.84375 94.054688 C 235.195312 93.578125 234.410156 93.203125 233.523438 93.066406 C 233.386719 92.554688 234.136719 92.828125 234.445312 92.65625 C 236.320312 92.996094 238.265625 93.269531 238.84375 94.90625 C 238.84375 95.109375 238.675781 95.144531 238.503906 95.179688 C 238.707031 95.246094 238.777344 95.484375 238.914062 95.65625 C 238.949219 95.824219 238.742188 95.792969 238.8125 95.996094 C 238.0625 96.4375 237.105469 96.234375 236.390625 96.097656 C 236.421875 95.859375 236.082031 96.03125 236.117188 95.824219 C 234.71875 95.757812 234.101562 94.972656 232.945312 94.667969 C 232.875 94.429688 232.945312 94.359375 232.875 94.15625 C 233.625 93.746094 234.921875 93.917969 235.84375 94.054688 Z M 235.84375 94.054688 " fill-opacity="1" fill-rule="evenodd"/><path fill="#a736ea" d="M 222.058594 108.261719 C 221.546875 108.261719 221.378906 108.226562 220.96875 108.160156 C 220.558594 106.828125 220.523438 105.058594 220.21875 103.421875 C 220.832031 103.082031 221.445312 103.183594 221.820312 103.59375 C 222.265625 104.75 222.707031 106.863281 222.058594 108.261719 Z M 222.058594 108.261719 " fill-opacity="1" fill-rule="evenodd"/><path fill="#a736ea" d="M 219.058594 103.796875 C 219.125 103.96875 219.125 103.96875 219.058594 104.136719 C 219.707031 104.855469 219.671875 106.320312 219.742188 107.613281 C 219.433594 107.851562 218.820312 107.988281 218.339844 107.886719 C 218.070312 106.625 217.828125 105.535156 217.828125 104.035156 C 218.136719 103.832031 218.613281 103.660156 219.058594 103.796875 Z M 219.058594 103.796875 " fill-opacity="1" fill-rule="evenodd"/><path fill="#a736ea" d="M 214.625 160.25 C 214.894531 160.625 214.28125 161.34375 214.726562 161.75 C 215.101562 161.921875 215.40625 161.75 215.75 161.75 C 216.738281 161.785156 217.625 162.535156 218.683594 162.601562 C 218.683594 162.671875 218.683594 162.773438 218.683594 162.839844 C 218.851562 162.808594 218.886719 162.945312 219.09375 162.910156 C 219.195312 163.488281 220.183594 163.183594 220.320312 163.761719 C 220.457031 163.761719 220.59375 163.761719 220.730469 163.761719 C 220.867188 164.203125 221.277344 164.375 221.308594 164.917969 C 221.378906 164.988281 221.515625 165.023438 221.652344 165.023438 C 221.546875 165.292969 221.652344 165.292969 221.890625 165.363281 C 221.890625 165.464844 221.820312 165.5 221.820312 165.601562 C 222.300781 165.839844 221.855469 166.382812 221.582031 166.589844 C 220.628906 166.519531 220.011719 166.589844 219.261719 166.25 C 218.957031 165.804688 218.339844 165.667969 217.695312 165.566406 C 217.660156 165.226562 217.386719 165.089844 217.011719 165.089844 C 216.804688 164.375 215.542969 164.679688 215.269531 164 C 214.964844 164.035156 214.828125 163.863281 214.691406 163.726562 C 214.078125 163.898438 213.464844 163.558594 213.085938 163.316406 C 212.609375 163.421875 212.441406 163.25 211.929688 163.25 C 211.621094 163.046875 211.960938 162.570312 211.65625 162.398438 C 211.65625 162.195312 211.824219 162.226562 211.894531 162.125 C 211.929688 161.886719 211.6875 161.886719 211.722656 161.648438 C 212.03125 161.582031 212.199219 161.308594 212.199219 160.898438 C 212.882812 159.980469 213.019531 158.921875 213.53125 158.003906 C 213.53125 157.867188 213.429688 157.832031 213.464844 157.664062 C 213.871094 157.015625 213.90625 155.617188 214.316406 154.5625 C 214.28125 154.460938 214.214844 154.359375 214.214844 154.222656 C 214.554688 153.507812 214.316406 151.835938 214.554688 150.984375 C 214.417969 150.78125 214.417969 150.40625 214.554688 150.167969 C 214.351562 148.566406 214.316406 147.101562 214.144531 145.566406 C 213.976562 145.160156 213.734375 144.613281 213.804688 144.171875 C 213.566406 143.863281 213.359375 143.523438 213.464844 143.148438 C 213.15625 142.738281 212.746094 142.09375 212.710938 141.582031 C 212.371094 141.410156 212.40625 141.207031 212.304688 140.765625 C 213.394531 140.183594 214.351562 140.933594 214.726562 141.582031 C 214.757812 141.71875 214.691406 141.71875 214.65625 141.820312 C 215.167969 142.363281 215.542969 143.011719 215.886719 143.726562 C 216.261719 145.839844 216.671875 148.121094 216.363281 150.644531 C 216.601562 152.007812 216.191406 153.507812 216.125 155.210938 C 216.054688 155.277344 216.023438 155.378906 215.953125 155.449219 C 215.886719 156.878906 215.269531 158.171875 215.101562 159.265625 C 214.828125 159.570312 214.929688 160.046875 214.625 160.25 Z M 214.625 160.25 " fill-opacity="1" fill-rule="evenodd"/><path fill="#a736ea" d="M 192.378906 160.933594 C 192.585938 161.648438 192.617188 162.195312 192.449219 162.703125 C 192.175781 162.738281 192.039062 162.910156 191.9375 163.113281 C 191.117188 163.078125 190.980469 163.761719 190.195312 163.761719 C 190.027344 163.796875 189.957031 163.964844 189.855469 164.035156 C 189.410156 164.066406 188.96875 164.171875 188.625 164.511719 C 188.21875 164.511719 187.535156 164.613281 187.296875 164.988281 C 186.886719 164.953125 186.785156 165.15625 186.273438 165.089844 C 183.78125 165.90625 181.292969 165.566406 178.835938 165.667969 C 178.496094 165.667969 178.1875 165.941406 177.847656 165.738281 C 177.675781 166.007812 177.335938 165.804688 177.027344 165.839844 C 176.753906 165.875 176.652344 166.179688 176.105469 166.007812 C 175.9375 166.007812 175.96875 166.179688 175.832031 166.179688 C 174.503906 166.042969 173.136719 166.757812 171.839844 166.453125 C 171.671875 165.53125 172.96875 165.363281 173.617188 165.292969 C 173.753906 165.226562 173.855469 164.917969 174.09375 164.886719 C 174.46875 164.851562 174.707031 164.679688 174.945312 164.613281 C 175.425781 164.476562 176.105469 164.441406 176.617188 164.339844 C 176.890625 164.273438 177.199219 164.375 177.472656 164.339844 C 177.8125 164.273438 178.152344 164.066406 178.496094 164.066406 C 178.664062 164.066406 178.835938 164.136719 179.007812 164.136719 C 180.0625 164.136719 181.121094 163.660156 182.179688 163.898438 C 183.339844 163.691406 184.292969 163.316406 185.351562 163.046875 C 186.339844 162.5 187.195312 161.851562 188.421875 161.546875 C 188.796875 160.898438 189.546875 161.171875 190.160156 161.136719 C 190.980469 161.070312 191.628906 160.660156 192.378906 160.933594 Z M 192.378906 160.933594 " fill-opacity="1" fill-rule="evenodd"/><path fill="#a736ea" d="M 209.949219 162.738281 C 210.1875 163.183594 210.152344 163.25 210.1875 163.761719 C 210.015625 163.828125 209.914062 163.929688 209.847656 164.101562 C 207.015625 163.761719 204.046875 164.410156 201.351562 164.101562 C 201.179688 164.136719 201.179688 163.964844 201.113281 163.863281 C 200.464844 164.136719 200.023438 163.386719 199.269531 163.386719 C 198.863281 162.875 198.214844 162.601562 197.667969 162.226562 C 197.667969 162.058594 197.667969 161.886719 197.667969 161.71875 C 199.269531 161.375 200.738281 161.957031 201.761719 162.398438 C 202.171875 162.398438 202.546875 162.433594 202.75 162.636719 C 203.980469 162.601562 205.273438 162.433594 206.914062 162.363281 C 207.5625 162.332031 208.105469 162.089844 208.6875 162.261719 C 209.128906 162.363281 209.4375 162.773438 209.949219 162.738281 Z M 209.949219 162.738281 " fill-opacity="1" fill-rule="evenodd"/><path fill="#a736ea" d="M 218.886719 168.019531 C 218.683594 168.121094 218.308594 168.054688 218.035156 168.089844 C 217.25 167.609375 216.636719 166.964844 215.679688 166.65625 C 215.101562 166.042969 214.382812 165.566406 213.601562 165.15625 C 213.601562 164.679688 212.953125 164.816406 212.953125 164.304688 C 213.15625 164.066406 213.632812 164.136719 214.042969 164.136719 C 214.214844 164.375 214.589844 164.410156 214.894531 164.542969 C 215.613281 164.917969 216.089844 165.5 216.804688 165.875 C 216.804688 165.941406 216.804688 166.042969 216.804688 166.113281 C 217.589844 166.589844 218.136719 167.203125 218.820312 167.609375 C 218.820312 167.816406 218.988281 167.816406 218.886719 168.019531 Z M 218.886719 168.019531 " fill-opacity="1" fill-rule="evenodd"/><g clip-path="url(#d6c3704aaa)"><path fill="#a736ea" d="M 163.585938 165.191406 C 163.789062 165.875 163.382812 166.453125 162.765625 166.757812 C 162.664062 167.609375 161.8125 168.359375 161.777344 169.347656 C 161.742188 169.382812 161.675781 169.417969 161.605469 169.417969 C 161.402344 170.710938 161.46875 172.414062 160.445312 173.0625 C 159.664062 172.992188 159.285156 173.128906 158.84375 172.824219 C 158.773438 172.175781 158.503906 171.496094 158.910156 170.984375 C 158.605469 170.609375 159.285156 170.03125 159.015625 169.722656 C 159.320312 168.972656 159.082031 168.257812 159.664062 167.542969 C 159.558594 167.234375 159.730469 166.828125 160.003906 166.726562 C 160.003906 166.621094 160.003906 166.519531 160.003906 166.453125 C 160.515625 166.316406 161.128906 166.042969 161.027344 165.53125 C 161.605469 165.261719 162.9375 164.988281 163.585938 165.191406 Z M 163.585938 165.191406 " fill-opacity="1" fill-rule="evenodd"/></g><path fill="#a736ea" d="M 216.875 169.894531 C 216.703125 169.859375 216.773438 169.996094 216.703125 170.0625 C 216.023438 170.097656 215.511719 169.960938 214.964844 169.824219 C 214.792969 169.554688 214.65625 169.246094 214.28125 169.179688 C 214.28125 169.109375 214.28125 169.007812 214.28125 168.941406 C 213.632812 168.667969 213.464844 167.917969 212.710938 167.714844 C 212.574219 167.40625 212.167969 167.101562 211.722656 166.894531 C 211.722656 166.621094 211.210938 166.144531 211.621094 165.804688 C 212.167969 165.738281 212.917969 165.804688 213.53125 165.875 C 213.734375 166.28125 214.246094 166.351562 214.625 166.554688 C 214.691406 166.65625 214.691406 166.691406 214.625 166.792969 C 215.441406 167.304688 215.816406 168.257812 216.601562 168.804688 C 216.535156 169.28125 216.941406 169.28125 216.875 169.894531 Z M 216.875 169.894531 " fill-opacity="1" fill-rule="evenodd"/><g clip-path="url(#ad8dd5eace)"><path fill="#a736ea" d="M 167.203125 166.589844 C 167.269531 166.757812 167.167969 166.828125 167.441406 166.863281 C 167.476562 166.996094 167.339844 166.996094 167.371094 167.132812 C 167.339844 167.339844 167.542969 167.304688 167.613281 167.40625 C 167.816406 168.632812 168.15625 169.929688 167.953125 171.050781 C 168.054688 171.734375 168.328125 172.859375 167.679688 173.0625 C 167.203125 173.234375 166.554688 172.960938 166.074219 172.890625 C 166.042969 172.753906 166.109375 172.753906 166.144531 172.652344 C 165.769531 172.074219 165.804688 171.152344 165.667969 170.167969 C 165.5625 169.417969 165.496094 168.496094 165.5625 167.816406 C 165.597656 167.441406 165.394531 167.234375 165.496094 166.996094 C 165.5625 166.863281 165.804688 166.792969 165.835938 166.65625 C 166.453125 166.792969 166.792969 166.519531 167.203125 166.589844 Z M 167.203125 166.589844 " fill-opacity="1" fill-rule="evenodd"/></g><path fill="#a736ea" d="M 164.917969 167.234375 C 165.050781 167.542969 164.882812 167.78125 164.8125 168.089844 C 164.507812 169.449219 164.882812 171.152344 164.234375 172.652344 C 163.894531 172.753906 163.246094 172.960938 162.902344 172.722656 C 162.628906 171.257812 162.492188 169.417969 163.140625 168.15625 C 163.039062 168.019531 163.140625 167.847656 163.074219 167.816406 C 163.277344 167.167969 164.371094 167.03125 164.917969 167.234375 Z M 164.917969 167.234375 " fill-opacity="1" fill-rule="evenodd"/><path fill="#a736ea" d="M 169.589844 172.515625 C 169.316406 171.394531 169.042969 170.0625 168.667969 168.941406 C 168.90625 168.394531 169.828125 168.292969 170.238281 168.703125 C 170.171875 169.042969 170.511719 168.972656 170.339844 169.210938 C 170.683594 169.484375 170.816406 169.996094 170.75 170.4375 C 171.023438 170.984375 171.125 171.527344 171.089844 172.347656 C 170.816406 172.6875 169.964844 172.859375 169.589844 172.515625 Z M 169.589844 172.515625 " fill-opacity="1" fill-rule="evenodd"/><path fill="#a736ea" d="M 214.078125 106.796875 C 214.929688 106.421875 216.089844 106.625 216.054688 107.648438 C 216.429688 107.988281 216.566406 108.566406 216.535156 109.042969 C 216.804688 109.453125 216.941406 109.964844 216.875 110.441406 C 217.183594 111.054688 217.351562 112.179688 217.214844 112.859375 C 217.453125 113.269531 217.558594 114.394531 217.316406 114.699219 C 217.316406 114.835938 217.421875 114.871094 217.488281 114.9375 C 217.351562 115.824219 217.488281 116.609375 217.421875 117.597656 C 217.421875 117.734375 217.386719 117.765625 217.25 117.765625 C 217.285156 117.902344 217.351562 118.003906 217.421875 118.105469 C 217.113281 118.957031 217.386719 120.59375 216.941406 121.378906 C 217.046875 121.445312 216.976562 121.71875 217.046875 121.785156 C 217.046875 121.921875 217.011719 121.957031 216.875 121.957031 C 217.183594 122.398438 216.566406 123.117188 216.804688 123.457031 C 216.429688 123.761719 216.804688 124.445312 216.398438 124.785156 C 216.566406 125.023438 216.5 125.226562 216.292969 125.363281 C 216.363281 125.5 216.566406 125.875 216.226562 125.875 C 216.226562 126.046875 216.363281 126.046875 216.328125 126.214844 C 216.261719 126.285156 216.226562 126.386719 216.089844 126.386719 C 216.261719 126.589844 216.191406 126.828125 215.988281 126.964844 C 215.953125 127.136719 216.160156 127.066406 216.089844 127.238281 C 215.679688 128.5 215.476562 129.828125 215.101562 131.089844 C 214.828125 131.292969 215.101562 131.597656 214.757812 131.734375 C 214.726562 131.90625 214.929688 131.835938 214.863281 132.007812 C 214.625 132.347656 214.726562 132.722656 214.453125 132.996094 C 214.417969 134.019531 213.941406 134.734375 213.769531 135.824219 C 213.734375 135.859375 213.667969 135.890625 213.597656 135.890625 C 213.734375 136.472656 213.257812 136.574219 213.328125 137.152344 C 213.292969 137.1875 213.222656 137.21875 213.15625 137.21875 C 213.222656 137.492188 213.15625 137.800781 212.882812 137.867188 C 213.085938 138.105469 212.679688 138.175781 212.644531 138.378906 C 212.710938 138.652344 212.679688 138.925781 212.40625 139.027344 C 212.472656 139.402344 212.234375 139.808594 211.929688 140.015625 C 211.894531 140.183594 211.996094 140.21875 211.996094 140.355469 C 211.417969 140.730469 211.585938 141.683594 211.007812 141.957031 C 211.246094 142.5 210.496094 142.605469 210.664062 143.113281 C 210.5625 143.351562 210.222656 143.488281 210.152344 143.695312 C 210.121094 143.796875 210.222656 143.933594 210.152344 144.101562 C 210.050781 144.339844 209.710938 144.714844 209.574219 144.921875 C 209.539062 144.953125 209.609375 145.054688 209.640625 145.023438 C 209.503906 145.261719 209.503906 145.160156 209.472656 145.363281 C 209.4375 145.738281 209.0625 145.804688 208.890625 146.113281 C 208.789062 146.316406 208.890625 146.488281 208.617188 146.589844 C 208.585938 146.726562 208.722656 146.726562 208.6875 146.863281 C 208.617188 146.894531 208.550781 146.929688 208.449219 146.929688 C 208.585938 147.339844 208.140625 147.476562 207.96875 147.75 C 207.9375 147.917969 208.039062 147.882812 208.039062 148.019531 C 207.289062 148.769531 206.914062 149.894531 206.195312 150.679688 C 206.195312 150.78125 206.195312 150.882812 206.195312 150.949219 C 205.855469 151.121094 205.480469 151.5625 205.515625 151.9375 C 205.242188 152.347656 204.59375 152.722656 204.59375 153.199219 C 202.851562 155.242188 201.179688 157.390625 199.578125 159.535156 C 199.167969 159.535156 198.894531 159.605469 198.589844 159.433594 C 198.316406 159.636719 197.53125 159.605469 197.257812 159.332031 C 197.222656 159.128906 197.359375 159.09375 197.429688 158.992188 C 197.429688 158.785156 197.191406 158.820312 197.257812 158.515625 C 197.632812 158.039062 197.941406 157.527344 198.65625 157.355469 C 198.453125 157.015625 198.894531 156.640625 199.304688 156.539062 C 199.339844 156.367188 199.203125 156.367188 199.238281 156.199219 C 200.054688 155.617188 200.363281 154.527344 201.25 154.015625 C 201.285156 153.472656 201.796875 152.960938 202.238281 152.621094 C 202.203125 152.519531 202.070312 152.519531 202.136719 152.347656 C 202.75 152.109375 202.820312 151.5625 202.988281 151.085938 C 203.46875 150.917969 203.570312 150.542969 203.636719 150.097656 C 203.808594 150.03125 203.945312 149.894531 203.910156 149.589844 C 204.117188 149.554688 204.21875 149.417969 204.386719 149.316406 C 204.386719 149.179688 204.285156 149.144531 204.320312 148.976562 C 204.898438 148.804688 204.59375 148.019531 205.140625 147.882812 C 205.207031 147.75 205.003906 147.679688 205.140625 147.644531 C 205.410156 147.375 205.273438 146.894531 205.785156 146.792969 C 205.753906 146.691406 205.652344 146.65625 205.683594 146.523438 C 206.128906 146.214844 206.164062 145.464844 206.605469 145.125 C 206.539062 144.785156 206.605469 144.578125 206.878906 144.476562 C 206.914062 144 207.152344 143.726562 207.457031 143.488281 C 207.289062 142.976562 207.835938 142.875 207.800781 142.261719 C 207.902344 142.230469 207.9375 142.125 208.074219 142.160156 C 207.9375 141.921875 208.039062 141.648438 208.3125 141.648438 C 208.3125 141.511719 208.210938 141.480469 208.242188 141.308594 C 208.378906 141.308594 208.414062 141.207031 208.515625 141.207031 C 208.277344 140.796875 208.824219 140.355469 209.027344 140.046875 C 208.925781 139.707031 209.097656 139.402344 209.371094 139.296875 C 209.371094 138.652344 209.746094 137.9375 210.1875 137.527344 C 210.015625 137.289062 210.1875 136.574219 210.527344 136.503906 C 210.289062 136.300781 210.5625 135.960938 210.769531 135.859375 C 210.800781 135.6875 210.664062 135.753906 210.664062 135.621094 C 211.175781 134.699219 211.144531 133.472656 211.824219 132.519531 C 211.585938 132.179688 211.859375 131.769531 212.097656 131.597656 C 212.097656 131.394531 211.894531 131.394531 211.929688 131.191406 C 212.199219 130.847656 212.234375 130.507812 212.269531 130.101562 C 212.507812 130.132812 212.472656 129.929688 212.609375 129.863281 C 212.609375 129.65625 212.40625 129.65625 212.371094 129.519531 C 212.710938 128.5 212.953125 127.542969 213.121094 126.453125 C 213.191406 126.386719 213.328125 126.386719 213.394531 126.351562 C 213.054688 126.078125 213.464844 125.703125 213.328125 125.328125 C 213.464844 125.195312 213.839844 124.886719 213.566406 124.683594 C 213.667969 124.445312 213.53125 124 213.839844 124 C 213.804688 123.730469 213.941406 123.660156 213.769531 123.523438 C 214.042969 123.117188 213.769531 122.570312 214.109375 122.128906 C 214.007812 121.855469 214.042969 121.378906 214.351562 121.308594 C 213.976562 121.039062 214.519531 120.765625 214.246094 120.457031 C 214.28125 120.425781 214.351562 120.390625 214.417969 120.390625 C 214.246094 120.183594 214.351562 119.777344 214.519531 119.707031 C 214.554688 119.539062 214.417969 119.605469 214.417969 119.46875 C 214.726562 118.480469 214.65625 117.085938 214.828125 115.996094 C 215.238281 113.234375 214.792969 110.238281 214.144531 107.578125 C 214.007812 107.648438 213.941406 107.75 213.871094 107.851562 C 213.941406 107.683594 214.246094 107.171875 214.078125 106.796875 Z M 214.078125 106.796875 " fill-opacity="1" fill-rule="evenodd"/><g clip-path="url(#2b96e3dc4f)"><path fill="#a736ea" d="M 221.753906 25.675781 C 222.027344 25.8125 222.402344 25.777344 222.402344 26.1875 C 222.707031 26.152344 222.878906 26.289062 222.878906 26.59375 C 222.980469 26.59375 223.082031 26.59375 223.152344 26.59375 C 223.253906 26.730469 223.253906 27.003906 223.390625 27.105469 C 223.527344 27.105469 223.664062 27.105469 223.730469 27.175781 C 223.628906 27.445312 223.765625 27.378906 223.800781 27.652344 C 224.550781 27.652344 224.175781 28.402344 224.789062 28.503906 C 224.753906 28.945312 224.960938 29.148438 225.265625 29.253906 C 225.507812 30.375 226.496094 31.363281 226.425781 32.523438 C 226.460938 32.589844 226.5625 32.558594 226.667969 32.589844 C 226.9375 33 226.699219 33.375 227.007812 33.578125 C 227.042969 33.785156 226.800781 33.714844 226.835938 33.921875 C 227.109375 34.160156 227.179688 34.667969 227.074219 35.011719 C 232.535156 34.566406 237.820312 34.941406 243.65625 36.03125 C 243.621094 36.167969 243.691406 36.167969 243.722656 36.269531 C 245.191406 36.167969 246.25 37.019531 247.648438 37.089844 C 247.679688 37.226562 247.75 37.359375 247.886719 37.429688 C 248.839844 37.257812 249.214844 38.042969 250.136719 38.078125 C 250.070312 38.28125 250.34375 38.179688 250.308594 38.347656 C 250.511719 38.347656 250.480469 38.28125 250.648438 38.347656 C 250.648438 38.417969 250.648438 38.519531 250.648438 38.585938 C 250.785156 38.621094 250.921875 38.65625 251.128906 38.65625 C 251.535156 39.40625 252.015625 39.644531 251.980469 40.800781 C 252.183594 40.597656 252.664062 40.699219 252.664062 40.324219 C 252.933594 40.292969 253.105469 40.121094 253.480469 40.15625 C 253.652344 40.15625 253.71875 39.984375 253.824219 39.917969 C 255.289062 39.371094 256.722656 39.371094 258.15625 38.996094 C 258.53125 38.894531 258.90625 38.621094 259.316406 38.519531 C 259.722656 38.417969 260.101562 38.347656 260.542969 38.246094 C 261.089844 38.078125 261.566406 38.007812 262.214844 37.972656 C 262.554688 37.632812 263.035156 37.804688 263.476562 37.734375 C 264.570312 37.601562 265.796875 37.054688 266.890625 37.328125 C 266.855469 37.53125 266.785156 37.769531 266.890625 37.972656 C 266.34375 38.585938 265.011719 38.453125 264.464844 39.066406 C 263.921875 38.894531 263.578125 39.234375 263.238281 39.335938 C 262.589844 39.574219 261.738281 39.472656 261.054688 39.679688 C 260.988281 39.710938 261.019531 39.78125 260.953125 39.78125 C 260.542969 39.882812 260.167969 39.78125 259.722656 39.847656 C 259.28125 39.917969 258.769531 40.085938 258.292969 40.1875 C 257.300781 40.394531 256.109375 40.769531 255.117188 40.871094 C 254.980469 40.871094 254.847656 40.769531 254.710938 40.800781 C 254.574219 40.835938 254.503906 41.007812 254.367188 41.039062 C 254.09375 41.109375 253.824219 41.007812 253.550781 41.039062 C 253.003906 41.109375 252.457031 41.382812 251.878906 41.277344 C 251.605469 41.550781 251.433594 41.925781 250.855469 41.757812 C 249.863281 42.503906 248.328125 41.996094 246.929688 41.859375 C 246.929688 41.789062 246.929688 41.6875 246.929688 41.621094 C 246.179688 41.484375 246.453125 40.496094 246.28125 40.050781 C 246.417969 39.78125 246.554688 39.78125 246.453125 39.371094 C 246.691406 39.371094 246.691406 39.132812 246.964844 39.199219 C 246.828125 38.859375 246.214844 39.03125 246.144531 38.621094 C 245.769531 38.691406 245.804688 38.554688 245.394531 38.554688 C 245.257812 38.042969 244.269531 38.417969 244.132812 37.90625 C 243.449219 38.078125 242.972656 37.601562 242.292969 37.566406 C 242.292969 37.496094 242.292969 37.464844 242.292969 37.394531 C 241.269531 37.429688 240.484375 36.988281 239.355469 36.746094 C 236.046875 36.304688 231.917969 35.691406 228.167969 36.066406 C 227.824219 36.101562 227.519531 36.339844 227.179688 36.132812 C 227.007812 36.101562 227.042969 36.304688 226.90625 36.304688 C 225.164062 36.304688 223.800781 36.714844 222.230469 36.816406 C 222.128906 36.851562 222.058594 36.917969 221.992188 36.988281 C 221.070312 37.191406 220.082031 36.988281 219.5 37.496094 C 218.886719 37.292969 218.445312 37.769531 217.761719 37.734375 C 217.453125 37.941406 217.386719 37.972656 216.910156 37.972656 C 215.136719 38.453125 213.53125 39.167969 211.894531 39.472656 C 211.757812 39.574219 211.550781 39.644531 211.484375 39.8125 C 210.972656 39.847656 210.597656 39.984375 210.394531 40.292969 C 209.710938 40.496094 209.097656 40.769531 208.617188 41.144531 C 208.105469 41.144531 207.867188 41.414062 207.59375 41.652344 C 207.390625 41.652344 207.425781 41.585938 207.253906 41.652344 C 206.742188 42.097656 205.957031 42.234375 205.480469 42.675781 C 205.378906 42.675781 205.273438 42.675781 205.207031 42.675781 C 204.898438 42.949219 204.355469 43.015625 204.046875 43.324219 C 203.058594 43.117188 202.035156 43.527344 201.453125 42.8125 C 201.386719 42.640625 201.558594 42.675781 201.558594 42.574219 C 201.046875 42.097656 201.421875 41.007812 200.804688 40.5625 C 200.773438 40.394531 200.875 40.425781 200.875 40.292969 C 200.839844 40.085938 200.601562 40.121094 200.363281 40.121094 C 200.292969 39.949219 200.363281 39.917969 200.363281 39.710938 C 200.363281 39.542969 200.125 39.609375 199.953125 39.609375 C 199.714844 39.03125 199.066406 38.859375 198.621094 38.453125 C 198.691406 38.28125 198.621094 38.316406 198.621094 38.109375 C 198.417969 37.871094 197.804688 38.007812 197.769531 37.601562 C 197.53125 37.632812 197.359375 37.601562 197.359375 37.359375 C 196.847656 37.226562 196.269531 37.089844 196.03125 36.679688 C 195.039062 36.339844 194.121094 36.375 193.199219 35.929688 C 192.550781 35.964844 192.039062 36.101562 191.289062 36.03125 C 191.117188 36.132812 190.945312 36.203125 190.878906 36.375 C 190.195312 36.203125 190.128906 36.714844 189.71875 36.851562 C 189.273438 36.988281 189.105469 37.054688 188.625 37.257812 C 187.980469 37.734375 187.332031 38.179688 186.613281 38.585938 C 186.035156 39.371094 185.453125 40.121094 184.703125 40.734375 C 184.667969 40.90625 184.773438 40.871094 184.773438 41.007812 C 184.667969 41.074219 184.667969 41.277344 184.429688 41.246094 C 184.566406 41.859375 183.75 41.960938 183.851562 42.746094 C 183.542969 42.710938 183.679688 43.117188 183.371094 43.085938 C 183.40625 43.628906 183.269531 44.105469 182.964844 44.480469 C 182.964844 44.925781 182.859375 45.265625 182.554688 45.402344 C 182.621094 45.707031 182.726562 46.421875 182.316406 46.628906 C 182.484375 46.96875 182.589844 47.445312 182.214844 47.648438 C 182.65625 47.957031 182.078125 48.742188 182.382812 48.910156 C 182.484375 49.523438 182.453125 49.796875 182.621094 50.238281 C 182.554688 50.582031 182.554688 50.683594 182.859375 50.820312 C 182.828125 51.195312 183.066406 51.296875 183.132812 51.570312 C 183.03125 51.703125 182.996094 51.875 183.03125 52.078125 C 183.238281 52.179688 183.714844 52.316406 183.507812 52.660156 C 183.882812 52.792969 184.019531 53.40625 184.019531 53.75 C 184.089844 53.886719 184.363281 53.816406 184.5 53.917969 C 184.5 54.054688 184.5 54.191406 184.429688 54.261719 C 184.464844 54.429688 184.703125 54.363281 184.839844 54.429688 C 184.839844 54.738281 185.011719 54.90625 185.25 55.007812 C 185.25 55.179688 185.25 55.316406 185.148438 55.351562 C 185.523438 55.554688 185.929688 55.757812 186.375 55.929688 C 186.410156 56.203125 186.476562 56.40625 186.785156 56.40625 C 186.820312 56.578125 186.714844 56.609375 186.714844 56.746094 C 186.988281 56.816406 187.261719 56.882812 187.46875 57.019531 C 187.5 57.191406 187.398438 57.15625 187.398438 57.292969 C 187.636719 57.292969 187.875 57.292969 188.046875 57.359375 C 188.082031 57.496094 188.046875 57.566406 187.980469 57.632812 C 188.21875 57.632812 188.492188 57.632812 188.457031 57.972656 C 188.625 57.871094 188.832031 57.941406 188.96875 58.042969 C 189.003906 58.246094 188.933594 58.347656 188.867188 58.449219 C 189.546875 58.519531 190.195312 58.960938 190.945312 59.132812 C 190.914062 59.335938 191.015625 59.371094 191.050781 59.472656 C 191.183594 59.472656 191.320312 59.472656 191.457031 59.472656 C 191.457031 60.257812 192.652344 60.152344 193.367188 60.390625 C 193.4375 60.460938 193.4375 60.597656 193.367188 60.664062 C 193.609375 60.597656 193.949219 60.527344 194.015625 60.765625 C 194.902344 60.597656 195.550781 61.515625 196.371094 61.277344 C 196.609375 61.515625 197.054688 61.246094 197.222656 61.550781 C 198.519531 61.824219 199.679688 61.003906 200.804688 61.074219 C 201.25 60.734375 201.691406 60.664062 202.203125 60.496094 C 203.058594 60.699219 203.738281 60.324219 204.21875 59.984375 C 204.628906 59.984375 205.378906 59.949219 205.71875 59.710938 C 205.992188 59.847656 206.230469 59.675781 206.539062 59.644531 C 207.117188 59.882812 207.730469 60.050781 207.96875 60.632812 C 207.765625 60.972656 207.527344 61.246094 207.324219 61.617188 C 206.296875 61.824219 205.445312 62.230469 204.898438 62.878906 C 204.523438 62.84375 204.25 62.914062 203.910156 62.949219 C 203.398438 63.457031 202.820312 63.664062 201.828125 63.59375 C 201.761719 63.699219 201.691406 63.765625 201.589844 63.832031 C 201.316406 63.730469 201.011719 63.902344 200.601562 63.832031 C 199.851562 64.414062 197.804688 63.730469 197.019531 64.242188 C 196.304688 64.105469 195.519531 63.800781 194.769531 64.070312 C 194.597656 64.105469 194.699219 63.867188 194.527344 63.902344 C 194.257812 63.902344 194.1875 64.070312 193.878906 64.070312 C 193.710938 63.832031 193.4375 64.039062 193.128906 63.902344 C 193.128906 63.800781 193.128906 63.699219 193.128906 63.628906 C 192.925781 63.664062 192.824219 63.800781 192.617188 63.800781 C 192.449219 63.832031 192.480469 63.664062 192.378906 63.628906 C 191.320312 63.730469 190.503906 63.21875 189.785156 62.8125 C 189.480469 62.949219 189.207031 62.777344 189.207031 62.472656 C 188.832031 62.472656 188.558594 62.335938 188.386719 62.128906 C 187.125 62.503906 185.453125 62.4375 184.636719 63.21875 C 183.613281 63.425781 182.964844 64.003906 181.90625 64.207031 C 181.667969 64.414062 181.429688 64.582031 181.222656 64.789062 C 179.859375 65.230469 178.699219 65.878906 177.710938 66.695312 C 174.980469 68.09375 172.660156 69.898438 170.375 71.773438 C 170.238281 71.738281 170.238281 71.875 170.101562 71.839844 C 169.589844 72.519531 168.769531 72.863281 168.328125 73.578125 C 167.101562 74.328125 166.347656 75.554688 165.15625 76.335938 C 165.15625 76.40625 165.15625 76.507812 165.15625 76.574219 C 163.789062 77.53125 162.871094 79.199219 161.46875 80.253906 C 161.46875 80.359375 161.539062 80.390625 161.539062 80.492188 C 160.957031 80.972656 160.617188 81.6875 159.96875 82.09375 C 160.003906 82.8125 159.046875 82.777344 159.152344 83.355469 C 158.535156 84.378906 157.546875 85.058594 157.136719 86.285156 C 156.386719 86.863281 156.285156 87.75 155.535156 88.296875 C 155.5 88.464844 155.636719 88.398438 155.636719 88.535156 C 155.433594 88.941406 154.988281 89.078125 154.988281 89.691406 C 154.476562 89.929688 154.304688 90.511719 153.964844 90.917969 C 154.101562 91.429688 153.625 91.804688 153.316406 92.078125 C 153.28125 92.28125 153.386719 92.488281 153.078125 92.554688 C 153.042969 92.726562 153.179688 92.726562 153.144531 92.894531 C 152.90625 93.03125 152.769531 93.304688 152.566406 93.472656 C 152.804688 94.085938 151.851562 94.085938 152.089844 94.734375 C 151.714844 95.007812 151.851562 95.65625 151.339844 95.894531 C 151.472656 96.269531 151.269531 96.507812 150.996094 96.574219 C 151.066406 97.085938 150.757812 97.664062 150.347656 97.902344 C 150.316406 98.074219 150.449219 98.003906 150.449219 98.140625 C 149.972656 98.960938 149.9375 99.84375 149.222656 100.457031 C 149.324219 100.800781 149.019531 100.800781 149.15625 101.207031 C 148.8125 101.515625 148.949219 101.992188 148.507812 102.296875 C 148.472656 102.46875 148.675781 102.402344 148.609375 102.570312 C 148.609375 102.742188 148.402344 102.707031 148.335938 102.808594 C 148.507812 103.117188 148.335938 103.628906 148.0625 103.796875 C 148.234375 104.105469 148.0625 104.546875 147.789062 104.617188 C 147.757812 104.820312 147.925781 104.820312 147.890625 105.023438 C 147.515625 105.058594 147.925781 105.601562 147.484375 105.671875 C 147.515625 106.285156 147.347656 107 146.972656 107.273438 C 147.140625 107.546875 147.109375 108.023438 146.734375 108.125 C 146.867188 108.429688 146.765625 109.28125 146.390625 109.453125 C 146.492188 110.203125 146.289062 111.464844 145.8125 112.28125 C 145.84375 112.417969 145.949219 112.453125 145.914062 112.621094 C 145.777344 113.066406 145.675781 113.441406 145.675781 114.054688 C 145.539062 114.121094 145.46875 114.222656 145.402344 114.324219 C 145.8125 114.9375 144.992188 115.757812 145.300781 116.472656 C 145.195312 116.539062 145.230469 116.777344 145.0625 116.8125 C 145.230469 117.5625 144.925781 118.378906 144.820312 119.164062 C 144.617188 120.695312 144.683594 122.535156 144.652344 124 C 144.582031 124.035156 144.582031 124.136719 144.480469 124.101562 C 144.515625 124.238281 144.550781 124.375 144.652344 124.445312 C 144.414062 125.976562 144.820312 127.648438 144.652344 128.941406 C 144.617188 129.113281 144.753906 129.042969 144.753906 129.179688 C 144.789062 129.351562 144.652344 129.351562 144.652344 129.453125 C 144.617188 129.589844 144.820312 129.519531 144.820312 129.621094 C 144.789062 130.78125 145.09375 131.359375 144.890625 132.144531 C 145.230469 133.0625 145.46875 134.019531 145.300781 134.871094 C 145.332031 134.9375 145.4375 134.972656 145.539062 134.972656 C 145.707031 136.0625 145.8125 136.878906 146.1875 137.800781 C 146.1875 137.902344 146.152344 138.003906 146.085938 138.039062 C 146.324219 138.378906 146.699219 139.09375 146.492188 139.46875 C 146.492188 139.570312 146.699219 139.503906 146.734375 139.570312 C 146.628906 140.183594 147.109375 140.285156 146.972656 140.796875 C 147.550781 141.410156 147.378906 142.296875 147.890625 142.808594 C 147.859375 142.945312 147.789062 143.113281 147.722656 143.21875 C 147.757812 143.421875 148.097656 143.351562 148.199219 143.488281 C 148.199219 143.898438 148.300781 144.101562 148.539062 144.308594 C 148.335938 144.683594 148.882812 144.714844 148.644531 145.054688 C 149.085938 145.363281 149.425781 146.113281 149.292969 146.554688 C 149.324219 146.726562 149.5625 146.65625 149.699219 146.726562 C 149.667969 147 149.871094 147.101562 149.972656 147.238281 C 150.007812 147.441406 149.871094 147.476562 149.90625 147.714844 C 150.65625 147.917969 150.484375 148.976562 151.234375 149.316406 C 151.132812 149.691406 151.578125 149.929688 151.746094 150.167969 C 151.78125 150.335938 151.679688 150.304688 151.679688 150.441406 C 152.089844 150.8125 152.632812 151.1875 152.601562 151.699219 C 153.042969 151.800781 153.007812 152.382812 153.453125 152.449219 C 153.25 152.859375 153.863281 152.722656 153.625 153.097656 C 153.65625 153.234375 153.964844 153.097656 154.035156 153.199219 C 154.101562 153.4375 153.828125 153.402344 153.964844 153.539062 C 154.066406 153.777344 154.238281 153.949219 154.613281 153.949219 C 154.851562 154.359375 155.160156 154.699219 155.535156 154.972656 C 155.535156 155.105469 155.5 155.210938 155.433594 155.242188 C 155.5 155.449219 155.773438 155.449219 155.945312 155.515625 C 156.046875 155.617188 155.945312 155.585938 155.945312 155.753906 C 156.320312 155.753906 156.351562 156.09375 156.695312 156.164062 C 156.695312 156.265625 156.625 156.300781 156.625 156.402344 C 157.136719 156.574219 157.34375 157.015625 157.855469 157.21875 C 157.886719 157.390625 157.785156 157.355469 157.785156 157.492188 C 157.855469 157.628906 158.128906 157.558594 158.261719 157.664062 C 158.160156 158.039062 158.535156 158.242188 158.945312 158.242188 C 158.980469 158.378906 159.117188 158.515625 159.015625 158.652344 C 159.21875 158.753906 159.320312 158.921875 159.664062 158.890625 C 159.796875 159.398438 160.277344 159.605469 160.753906 159.808594 C 160.550781 160.21875 160.957031 160.21875 161.230469 160.320312 C 161.230469 160.421875 161.164062 160.457031 161.164062 160.558594 C 161.605469 160.832031 162.015625 161.445312 161.914062 162.058594 C 161.878906 162.226562 162.117188 162.125 162.085938 162.296875 C 162.324219 163.589844 161.605469 163.828125 161.335938 164.648438 C 161.128906 164.714844 160.957031 164.851562 160.855469 165.054688 C 159.796875 165.089844 159.285156 165.667969 158.332031 165.804688 C 158.261719 165.941406 158.023438 165.90625 158.058594 166.144531 C 157 166.351562 155.875 165.839844 154.988281 166.25 C 154.546875 166.113281 153.863281 166.179688 153.488281 165.976562 C 152.804688 166.078125 152.464844 165.429688 151.882812 165.394531 C 151.679688 165.394531 151.472656 165.53125 151.234375 165.5 C 150.828125 165.464844 150.316406 165.261719 149.972656 164.988281 C 149.699219 165.089844 149.324219 165.089844 149.394531 164.648438 C 148.914062 164.75 148.914062 164.375 148.402344 164.476562 C 148.371094 164.238281 148.0625 164.238281 148.0625 163.964844 C 147.652344 164.238281 147.550781 163.828125 147.039062 163.898438 C 147.003906 163.828125 146.972656 163.726562 146.972656 163.625 C 145.980469 163.726562 145.980469 162.808594 145.0625 162.808594 C 145.164062 162.332031 144.582031 162.226562 144.039062 162.226562 C 143.933594 161.988281 143.796875 161.820312 143.390625 161.886719 C 143.253906 161.410156 142.742188 161.308594 142.296875 161.136719 C 142.296875 160.386719 141.375 160.558594 140.96875 160.21875 C 141.101562 159.773438 140.625 159.910156 140.695312 159.535156 C 140.285156 159.46875 140.113281 159.160156 139.671875 159.265625 C 139.671875 158.992188 139.226562 158.820312 139.566406 158.582031 C 139.226562 158.34375 138.679688 158.308594 138.40625 158.003906 C 138.40625 157.902344 138.40625 157.796875 138.40625 157.730469 C 137.792969 157.457031 137.382812 157.050781 137.078125 156.46875 C 136.976562 156.46875 136.839844 156.46875 136.738281 156.46875 C 136.703125 156.367188 136.566406 156.300781 136.667969 156.199219 C 135.746094 155.824219 135.578125 154.664062 134.691406 154.222656 C 134.722656 153.675781 134.3125 153.574219 134.007812 153.371094 C 134.042969 152.996094 133.5625 152.894531 133.90625 152.550781 C 133.800781 152.484375 133.53125 152.550781 133.394531 152.382812 C 133.359375 152.175781 133.53125 152.175781 133.496094 151.972656 C 133.289062 151.835938 133.121094 151.667969 132.847656 151.5625 C 132.882812 151.496094 132.777344 151.257812 132.914062 151.292969 C 132.710938 151.15625 132.371094 150.882812 132.640625 150.609375 C 132.574219 150.472656 132.335938 150.507812 132.164062 150.441406 C 132.097656 149.792969 131.550781 149.589844 131.824219 149.007812 C 131.378906 148.90625 131.074219 148.394531 131.175781 147.917969 C 130.699219 147.304688 130.390625 146.554688 130.355469 145.738281 C 130.355469 145.601562 130.152344 145.636719 130.082031 145.566406 C 130.1875 145.125 129.742188 145.023438 129.980469 144.648438 C 129.332031 143.660156 129.332031 142.332031 128.890625 141.171875 C 128.925781 141.070312 128.925781 140.933594 128.992188 140.898438 C 128.617188 140.59375 128.71875 139.84375 128.71875 139.46875 C 128.414062 139.332031 128.480469 138.855469 128.652344 138.617188 C 128.378906 138.414062 128.34375 137.832031 128.480469 137.527344 C 128.242188 137.21875 128.070312 136.335938 128.378906 135.960938 C 128.34375 135.824219 128.171875 135.789062 128.140625 135.6875 C 128.105469 135.175781 128.34375 134.800781 128.070312 134.460938 C 128.171875 133.8125 128.140625 133.40625 128.070312 132.621094 C 128.277344 132.417969 128.105469 132.210938 128.308594 132.042969 C 128.171875 131.121094 128.171875 130.167969 128.546875 129.519531 C 128.515625 129.179688 128.34375 128.53125 128.71875 128.261719 C 128.582031 127.066406 129.128906 126.386719 129.195312 125.261719 C 129.300781 125.195312 129.300781 125.023438 129.46875 125.023438 C 129.503906 124.851562 129.367188 124.820312 129.402344 124.613281 C 129.707031 124.070312 129.539062 123.421875 129.914062 123.046875 C 129.707031 122.332031 130.425781 121.890625 130.324219 121.277344 C 130.730469 121.171875 130.253906 120.457031 130.800781 120.289062 C 130.765625 120.152344 130.664062 120.117188 130.699219 119.945312 C 130.800781 119.945312 130.765625 119.777344 130.9375 119.84375 C 130.972656 119.46875 131.003906 118.71875 131.449219 118.585938 C 131.242188 118.003906 131.859375 117.597656 131.722656 117.085938 C 131.753906 117.050781 131.824219 117.015625 131.890625 117.015625 C 131.925781 116.847656 131.789062 116.8125 131.824219 116.609375 C 132.300781 116.300781 131.960938 115.722656 132.472656 115.519531 C 132.507812 115.382812 132.371094 115.382812 132.402344 115.246094 C 132.507812 115.175781 132.640625 115.109375 132.8125 115.074219 C 132.8125 114.90625 132.675781 114.871094 132.640625 114.734375 C 132.949219 114.257812 132.914062 113.644531 133.460938 113.304688 C 133.394531 113.066406 133.324219 112.691406 133.632812 112.65625 C 133.5625 112.554688 133.460938 112.519531 133.53125 112.316406 C 133.632812 112.28125 133.667969 112.179688 133.800781 112.214844 C 133.597656 111.769531 134.109375 111.121094 134.382812 110.78125 C 134.28125 110.441406 134.417969 110.066406 134.792969 110.03125 C 134.792969 109.863281 134.722656 109.761719 134.691406 109.625 C 134.792969 109.488281 134.859375 109.28125 135.03125 109.214844 C 134.960938 108.5 135.472656 107.851562 135.679688 107.070312 C 135.78125 107.070312 135.816406 107 135.917969 107 C 135.847656 106.761719 135.917969 106.25 136.257812 106.25 C 136.226562 106.113281 136.15625 106.046875 136.191406 105.84375 C 136.328125 105.738281 136.496094 105.671875 136.601562 105.570312 C 136.601562 105.398438 136.429688 105.398438 136.496094 105.160156 C 136.804688 105.09375 137.113281 104.71875 136.769531 104.480469 C 136.839844 104.375 136.90625 104.207031 137.113281 104.242188 C 137.144531 104.003906 136.976562 104.003906 137.007812 103.761719 C 137.113281 103.695312 137.25 103.628906 137.351562 103.59375 C 137.113281 103.355469 137.382812 102.84375 137.691406 102.777344 C 137.726562 102.535156 137.519531 102.503906 137.625 102.296875 C 138.101562 101.890625 137.894531 101.414062 138.375 101.070312 C 138.167969 100.867188 138.273438 100.527344 138.542969 100.492188 C 138.339844 100.050781 138.714844 99.742188 139.023438 99.574219 C 138.851562 99.027344 139.125 98.210938 139.773438 98.003906 C 139.535156 97.871094 139.566406 97.460938 139.875 97.425781 C 139.808594 97.289062 139.738281 97.1875 139.773438 96.949219 C 139.875 96.8125 140.046875 96.777344 140.113281 96.675781 C 140.113281 96.574219 140.046875 96.539062 140.046875 96.4375 C 140.457031 96.0625 140.25 95.417969 140.796875 95.179688 C 140.625 94.292969 141.546875 93.746094 141.546875 92.929688 C 141.71875 92.792969 141.992188 92.757812 142.125 92.589844 C 142.058594 92.382812 141.921875 92.28125 141.855469 92.113281 C 142.332031 91.429688 142.707031 90.714844 142.84375 89.792969 C 143.082031 89.792969 143.183594 89.625 143.117188 89.316406 C 143.355469 89.25 143.492188 89.078125 143.628906 88.910156 C 143.558594 88.773438 143.421875 88.703125 143.390625 88.570312 C 143.695312 87.75 144.140625 87.070312 144.378906 86.21875 C 144.480469 86.183594 144.515625 86.082031 144.652344 86.117188 C 144.378906 85.570312 145.027344 85.160156 145.300781 84.785156 C 145.300781 84.582031 145.128906 84.582031 145.128906 84.378906 C 145.164062 84.171875 145.265625 84.003906 145.46875 83.96875 C 145.402344 83.933594 145.46875 83.730469 145.367188 83.730469 C 145.503906 83.492188 145.777344 83.421875 146.015625 83.253906 C 145.949219 83.117188 145.8125 83.050781 145.777344 82.914062 C 145.84375 82.605469 145.949219 82.332031 146.253906 82.265625 C 146.253906 82.09375 146.117188 82.09375 146.152344 81.925781 C 146.289062 81.855469 146.324219 81.71875 146.5625 81.753906 C 146.21875 81.3125 146.597656 80.628906 147.074219 80.492188 C 147.039062 80.359375 146.800781 80.117188 146.902344 80.015625 C 146.902344 79.847656 147.109375 79.847656 147.246094 79.777344 C 146.972656 79.402344 147.515625 79.402344 147.246094 79.027344 C 147.585938 78.824219 147.484375 78.519531 147.585938 78.109375 C 147.890625 78.007812 147.960938 77.664062 148.234375 77.53125 C 148.234375 77.292969 147.996094 77.292969 147.996094 77.019531 C 148.132812 76.917969 148.335938 76.917969 148.472656 76.78125 C 148.4375 76.644531 148.300781 76.542969 148.300781 76.371094 C 148.609375 76.097656 148.675781 75.757812 148.710938 75.214844 C 148.847656 75.109375 149.050781 75.078125 149.121094 74.941406 C 148.949219 74.769531 148.984375 74.667969 149.019531 74.359375 C 149.121094 74.292969 149.292969 74.257812 149.425781 74.191406 C 149.121094 73.40625 149.734375 72.726562 150.074219 72.28125 C 150.007812 72.148438 149.871094 72.078125 149.835938 71.941406 C 150.210938 71.5 149.972656 70.679688 150.585938 70.375 C 150.484375 70.238281 150.347656 70.136719 150.417969 69.863281 C 150.519531 69.796875 150.65625 69.726562 150.757812 69.695312 C 150.691406 69.558594 150.585938 69.523438 150.585938 69.351562 C 151.132812 68.363281 150.859375 67.34375 151.578125 66.457031 C 151.609375 66.253906 151.339844 66.320312 151.40625 66.046875 C 151.472656 65.945312 151.679688 65.980469 151.746094 65.878906 C 151.746094 65.671875 151.507812 65.742188 151.507812 65.605469 C 151.578125 65.128906 151.507812 64.890625 151.78125 64.617188 C 151.746094 64.105469 151.679688 63.425781 152.121094 63.117188 C 151.917969 62.949219 151.851562 62.335938 152.226562 62.300781 C 152.15625 62.164062 152.089844 62.027344 152.054688 61.824219 C 152.15625 60.765625 152.226562 59.777344 152.226562 58.824219 C 152.226562 58.6875 152.292969 58.585938 152.464844 58.585938 C 152.394531 58.449219 152.257812 58.382812 152.226562 58.246094 C 152.429688 57.324219 152.019531 56.066406 152.226562 55.179688 C 151.816406 53.714844 151.816406 52.589844 151.066406 51.195312 C 151.066406 51.089844 151.132812 51.058594 151.132812 50.953125 C 150.449219 50.273438 150.179688 49.183594 149.222656 48.773438 C 149.222656 48.671875 149.1875 48.570312 149.292969 48.535156 C 148.78125 48.367188 148.300781 47.890625 147.722656 48.023438 C 147.414062 48.09375 147.3125 48.433594 146.902344 48.433594 C 146.492188 48.742188 146.085938 49.25 145.878906 49.59375 C 145.707031 50.339844 145.503906 51.058594 145.605469 51.941406 C 145.777344 52.25 146.050781 52.691406 146.015625 52.964844 C 146.425781 53.339844 146.730469 53.78125 147.414062 53.886719 C 147.652344 53.851562 147.621094 53.542969 147.890625 53.542969 C 147.859375 52.453125 149.425781 52.316406 150.074219 52.625 C 150.109375 53.066406 149.9375 53.238281 150.007812 53.613281 C 149.222656 55.042969 146.664062 55.246094 145.09375 54.53125 C 144.582031 53.886719 144.171875 53.441406 143.832031 52.554688 C 144.003906 52.179688 143.457031 51.703125 143.730469 51.296875 C 143.527344 50 143.730469 48.707031 144.652344 48.128906 C 144.683594 47.921875 144.550781 47.890625 144.582031 47.71875 C 144.820312 47.71875 144.855469 47.546875 145.09375 47.546875 C 145.09375 47.34375 145.027344 47.378906 145.09375 47.207031 C 146.492188 46.558594 148.507812 46.050781 150.246094 46.21875 C 150.246094 46.390625 150.449219 46.390625 150.484375 46.492188 C 151.304688 46.390625 151.542969 46.832031 152.257812 46.832031 C 152.363281 47.207031 152.941406 47.140625 152.941406 47.582031 C 153.144531 47.546875 153.25 47.617188 153.417969 47.648438 C 153.386719 47.855469 153.65625 47.921875 153.488281 48.128906 C 153.691406 48.09375 153.761719 48.195312 153.964844 48.195312 C 154.714844 49.320312 155.363281 50.339844 155.875 51.773438 C 155.875 51.875 155.839844 51.976562 155.773438 52.011719 C 156.148438 52.523438 156.386719 53.203125 156.285156 53.78125 C 156.351562 53.851562 156.457031 53.886719 156.523438 53.953125 C 156.488281 54.089844 156.457031 54.226562 156.351562 54.292969 C 156.898438 55.113281 156.625 56.101562 156.933594 56.953125 C 156.726562 57.257812 156.898438 57.191406 156.933594 57.460938 C 156.933594 57.566406 156.832031 57.699219 156.832031 57.699219 C 156.832031 57.804688 157 57.871094 157 57.972656 C 157 58.042969 156.898438 58.144531 156.898438 58.3125 C 156.898438 58.859375 157 59.710938 157 60.324219 C 156.933594 60.496094 156.898438 60.734375 156.726562 60.800781 C 156.796875 60.972656 156.96875 61.074219 156.898438 61.378906 C 156.796875 61.515625 156.625 61.617188 156.558594 61.789062 C 156.796875 62.0625 156.933594 62.640625 156.488281 62.777344 C 156.761719 64.480469 156.148438 65.671875 155.976562 67.273438 C 155.636719 67.546875 155.976562 68.125 155.570312 68.296875 C 155.773438 68.636719 155.535156 69.214844 155.226562 69.386719 C 155.398438 69.488281 155.5 69.828125 155.160156 69.863281 C 155.226562 70.035156 155.226562 70.339844 155.226562 70.613281 C 154.816406 70.679688 155.191406 71.429688 154.714844 71.535156 C 154.988281 72.179688 154.410156 72.894531 154.066406 73.304688 C 154.238281 73.816406 154 74.226562 153.898438 74.804688 C 153.828125 74.871094 153.625 74.839844 153.554688 74.90625 C 153.519531 75.179688 153.761719 75.179688 153.726562 75.417969 C 153.488281 75.484375 153.351562 75.621094 153.214844 75.757812 C 153.554688 76.097656 153.25 76.574219 152.941406 76.746094 C 152.90625 76.949219 153.078125 76.949219 153.042969 77.15625 C 152.941406 77.222656 152.804688 77.292969 152.703125 77.324219 C 152.976562 77.769531 152.566406 77.835938 152.703125 78.3125 C 152.566406 78.382812 152.363281 78.414062 152.292969 78.550781 C 152.601562 79.199219 151.917969 79.675781 152.019531 80.222656 C 151.917969 80.324219 151.714844 80.359375 151.609375 80.460938 C 151.714844 80.9375 151.507812 81.175781 151.507812 81.550781 C 151.371094 81.550781 151.339844 81.652344 151.167969 81.617188 C 151.371094 82.4375 150.757812 83.117188 150.347656 83.628906 C 150.347656 83.832031 150.554688 83.832031 150.519531 84.035156 C 150.417969 84.171875 150.316406 84.277344 150.109375 84.308594 C 150.28125 84.515625 150.144531 85.023438 149.835938 85.058594 C 150.007812 85.398438 149.804688 85.910156 149.359375 85.980469 C 149.359375 86.117188 149.394531 86.21875 149.460938 86.25 C 149.085938 86.730469 149.257812 87.410156 148.644531 87.683594 C 148.882812 87.957031 148.574219 88.089844 148.644531 88.5 C 148.300781 88.738281 148.269531 89.285156 148.132812 89.726562 C 147.722656 89.863281 147.859375 90.542969 147.449219 90.648438 C 147.6875 91.019531 147.378906 91.632812 146.972656 91.738281 C 147.140625 92.113281 146.835938 92.351562 146.628906 92.488281 C 146.765625 92.65625 146.835938 93.101562 146.460938 93.066406 C 146.492188 93.203125 146.597656 93.234375 146.5625 93.40625 C 146.492188 93.507812 146.289062 93.507812 146.152344 93.578125 C 146.1875 93.953125 146.117188 94.632812 145.640625 94.804688 C 145.914062 95.6875 144.890625 96.097656 144.957031 97.050781 C 144.652344 97.152344 144.445312 97.359375 144.683594 97.699219 C 144.652344 98.210938 143.96875 98.210938 144.171875 98.789062 C 144.105469 98.859375 144.070312 98.960938 143.933594 98.960938 C 144.140625 99.300781 143.796875 99.878906 143.527344 100.117188 C 143.695312 100.628906 143.046875 100.730469 143.253906 101.277344 C 143.148438 101.3125 143.148438 101.445312 142.980469 101.378906 C 142.945312 101.550781 143.082031 101.582031 143.046875 101.789062 C 142.910156 101.855469 142.878906 101.957031 142.707031 101.957031 C 142.671875 102.535156 142.605469 102.707031 142.230469 102.945312 C 142.707031 103.390625 141.886719 103.660156 141.75 104.035156 C 141.855469 104.273438 141.992188 104.648438 141.648438 104.71875 C 141.613281 104.886719 141.75 104.886719 141.71875 105.058594 C 141.582031 105.09375 141.546875 105.195312 141.375 105.160156 C 141.375 105.296875 141.410156 105.398438 141.480469 105.433594 C 140.832031 105.945312 141 107.035156 140.457031 107.511719 C 140.285156 108.636719 139.839844 109.453125 139.191406 110.339844 C 139.363281 110.644531 139.261719 111.191406 138.917969 111.328125 C 139.160156 111.769531 138.613281 111.769531 138.816406 112.179688 C 138.679688 112.214844 138.714844 112.382812 138.542969 112.347656 C 138.679688 112.65625 138.578125 112.960938 138.304688 113.097656 C 138.40625 113.679688 137.761719 113.984375 137.554688 114.425781 C 137.589844 114.597656 137.792969 114.5625 137.792969 114.769531 C 137.554688 115.144531 137.589844 115.449219 137.144531 115.6875 C 137.214844 115.890625 137.351562 116.199219 137.042969 116.199219 C 137.007812 116.371094 137.214844 116.300781 137.144531 116.472656 C 137.042969 116.609375 136.90625 116.675781 136.738281 116.746094 C 136.976562 117.628906 136.089844 118.34375 135.816406 119.09375 C 136.089844 119.742188 135.644531 119.945312 135.335938 120.320312 C 135.371094 120.492188 135.578125 120.527344 135.507812 120.796875 C 135.472656 121.039062 135.234375 121.003906 135.167969 121.207031 C 135.335938 121.617188 135.03125 121.957031 134.824219 122.195312 C 134.792969 122.367188 134.996094 122.332031 134.929688 122.535156 C 134.554688 122.707031 134.3125 123.183594 134.585938 123.523438 C 134.382812 124.273438 133.90625 125.023438 133.9375 125.839844 C 133.871094 125.875 133.871094 125.976562 133.769531 125.941406 C 133.769531 126.453125 133.734375 127.40625 133.257812 127.613281 C 133.53125 128.019531 133.394531 128.804688 133.019531 129.113281 C 133.289062 129.453125 133.019531 129.828125 132.949219 130.371094 C 132.882812 130.953125 133.050781 131.496094 132.777344 131.804688 C 132.914062 132.3125 132.847656 132.894531 132.710938 133.40625 C 132.847656 133.574219 132.777344 133.539062 132.8125 133.8125 C 132.472656 134.765625 133.152344 135.652344 132.640625 136.402344 C 132.777344 136.503906 132.847656 136.640625 132.914062 136.8125 C 132.882812 136.949219 132.847656 137.050781 132.746094 137.085938 C 133.1875 138.003906 132.914062 139.09375 133.394531 139.910156 C 133.359375 140.082031 133.222656 140.117188 133.152344 140.253906 C 133.1875 140.390625 133.359375 140.390625 133.425781 140.492188 C 133.667969 141.71875 133.972656 142.976562 134.417969 144.070312 C 134.449219 144.238281 134.347656 144.273438 134.347656 144.410156 C 134.585938 144.988281 135.269531 145.703125 135.03125 146.386719 C 135.097656 146.453125 135.234375 146.488281 135.371094 146.488281 C 135.304688 147.03125 135.953125 147.304688 135.714844 147.882812 C 135.816406 147.953125 135.984375 147.953125 136.121094 147.988281 C 136.257812 148.734375 136.53125 149.144531 137.042969 149.65625 C 137.078125 149.792969 137.042969 149.894531 136.976562 149.929688 C 137.179688 150.066406 137.589844 150.304688 137.453125 150.609375 C 137.792969 150.542969 137.726562 150.882812 137.964844 150.882812 C 137.964844 151.019531 137.929688 151.121094 137.863281 151.15625 C 137.863281 151.324219 138.136719 151.222656 138.203125 151.324219 C 138.238281 151.460938 138.203125 151.53125 138.136719 151.597656 C 138.273438 151.734375 138.613281 151.667969 138.714844 151.835938 C 138.679688 151.9375 138.613281 152.039062 138.613281 152.175781 C 139.160156 152.414062 139.535156 152.824219 139.773438 153.402344 C 140.285156 153.402344 140.320312 153.878906 140.625 154.050781 C 140.660156 154.222656 140.558594 154.289062 140.523438 154.390625 C 140.660156 154.492188 140.933594 154.425781 141.035156 154.5625 C 141.070312 154.699219 141.035156 154.765625 140.96875 154.835938 C 141.511719 154.730469 141.480469 155.242188 141.886719 155.3125 C 141.886719 155.414062 141.886719 155.515625 141.886719 155.585938 C 142.261719 155.71875 142.535156 155.957031 142.808594 156.164062 C 142.84375 156.300781 142.773438 156.300781 142.742188 156.402344 C 142.910156 156.570312 143.148438 156.675781 143.558594 156.640625 C 143.527344 156.878906 143.933594 156.980469 143.730469 157.21875 C 143.902344 157.320312 144.171875 157.320312 144.070312 157.695312 C 144.652344 157.796875 145.332031 157.867188 145.300781 158.445312 C 145.640625 158.515625 145.84375 158.683594 146.21875 158.71875 C 146.253906 158.890625 146.324219 159.023438 146.390625 159.195312 C 146.800781 159.128906 146.972656 159.332031 147.3125 159.367188 C 147.3125 159.742188 147.6875 159.773438 147.996094 159.84375 C 147.890625 160.523438 148.609375 160.421875 149.085938 160.523438 C 149.425781 161.171875 150.417969 161.171875 150.996094 161.546875 C 151.03125 161.714844 150.929688 161.785156 150.894531 161.886719 C 151.03125 162.023438 151.339844 161.921875 151.371094 162.160156 C 151.542969 162.125 151.746094 162.125 151.851562 162.058594 C 152.292969 162.433594 153.25 162.328125 153.589844 162.808594 C 154.203125 162.875 154.75 162.976562 154.921875 163.488281 C 155.875 163.625 157.238281 163.691406 158.195312 163.589844 C 158.195312 163.488281 158.195312 163.386719 158.195312 163.316406 C 158.46875 163.285156 158.605469 163.078125 158.945312 163.078125 C 158.910156 162.671875 159.183594 162.601562 159.117188 162.160156 C 158.980469 161.921875 158.671875 161.820312 158.640625 161.476562 C 158.570312 161.375 158.296875 161.445312 158.230469 161.375 C 158.195312 161.207031 158.296875 161.171875 158.296875 161.035156 C 158.160156 160.863281 157.921875 160.796875 157.648438 160.761719 C 157.71875 160.320312 157.308594 160.355469 157 160.25 C 156.96875 160.183594 156.933594 160.082031 156.933594 159.980469 C 156.726562 159.980469 156.726562 159.808594 156.457031 159.878906 C 156.421875 159.570312 156.113281 159.570312 156.113281 159.230469 C 155.945312 159.195312 155.773438 159.160156 155.601562 159.128906 C 155.601562 159.023438 155.601562 158.921875 155.601562 158.855469 C 155.464844 158.855469 155.328125 158.855469 155.191406 158.855469 C 154.816406 158.445312 154.578125 157.902344 153.964844 157.695312 C 153.964844 157.59375 153.964844 157.457031 153.964844 157.355469 C 153.351562 157.320312 153.417969 156.605469 152.804688 156.539062 C 152.804688 156.46875 152.804688 156.367188 152.804688 156.300781 C 152.089844 156.128906 152.054688 155.003906 151.304688 154.800781 C 151.441406 154.324219 150.960938 154.222656 150.65625 153.984375 C 150.585938 153.234375 149.804688 153.164062 149.734375 152.382812 C 149.699219 152.246094 149.597656 152.175781 149.394531 152.210938 C 149.425781 152.074219 149.324219 151.835938 149.460938 151.800781 C 149.050781 151.5625 148.847656 151.15625 148.472656 150.882812 C 148.609375 150.472656 148.335938 150.542969 148.371094 150.132812 C 148.164062 150.066406 148.0625 149.929688 147.859375 149.859375 C 147.890625 149.792969 147.789062 149.554688 147.925781 149.585938 C 147.550781 149.316406 147.109375 148.871094 147.175781 148.328125 C 147.175781 148.191406 146.9375 148.328125 146.902344 148.226562 C 146.867188 147.613281 146.1875 147.339844 146.253906 146.792969 C 145.878906 146.351562 145.46875 145.636719 145.503906 144.953125 C 145.195312 144.816406 144.890625 144.410156 145.09375 144.101562 C 144.753906 143.964844 144.515625 143.523438 144.820312 143.25 C 144.34375 142.84375 143.96875 142.023438 144.003906 141.273438 C 143.933594 141.136719 143.765625 141.105469 143.730469 141.003906 C 143.765625 140.96875 143.765625 140.832031 143.832031 140.832031 C 143.253906 140.152344 143.390625 139.230469 142.980469 138.515625 C 143.046875 138.378906 143.082031 138.242188 143.082031 138.039062 C 143.046875 137.867188 142.878906 137.867188 142.808594 137.765625 C 142.84375 137.117188 142.398438 136.675781 142.570312 136.027344 C 142.296875 135.449219 142.160156 134.359375 142.230469 133.949219 C 142.160156 133.847656 142.09375 133.746094 141.992188 133.675781 C 142.09375 132.757812 141.75 131.53125 141.582031 130.40625 C 141.75 130.167969 141.75 130.101562 141.511719 129.894531 C 141.75 129.179688 141.207031 128.261719 141.582031 127.578125 C 141.582031 127.410156 141.410156 127.410156 141.34375 127.304688 C 141.445312 126.898438 141.308594 126.386719 141.445312 126.046875 C 141.273438 124.511719 141.308594 122.980469 141.511719 121.480469 C 141.410156 121.105469 141.445312 120.425781 141.683594 120.082031 C 141.71875 119.914062 141.511719 119.980469 141.582031 119.8125 C 141.785156 119.300781 141.613281 118.789062 141.683594 118.074219 C 141.71875 117.664062 141.820312 117.222656 141.855469 116.8125 C 141.921875 116.027344 141.992188 115.484375 142.367188 115.039062 C 142.023438 114.699219 142.230469 113.609375 142.605469 113.269531 C 142.535156 113.199219 142.433594 113.167969 142.433594 113.03125 C 142.707031 112.484375 142.46875 111.839844 142.945312 111.359375 C 142.707031 110.816406 143.015625 110.03125 143.285156 109.625 C 143.183594 109.113281 143.421875 108.054688 143.867188 107.613281 C 143.933594 107.375 143.695312 107.441406 143.765625 107.203125 C 143.730469 107.035156 143.902344 107.070312 143.933594 106.964844 C 143.933594 106.863281 143.902344 106.761719 143.832031 106.726562 C 144.070312 106.285156 144.140625 105.707031 144.414062 105.398438 C 144.070312 104.820312 144.890625 104.34375 144.683594 103.730469 C 144.820312 103.695312 144.753906 103.421875 144.957031 103.457031 C 144.925781 103.320312 144.820312 103.285156 144.855469 103.117188 C 145.027344 103.082031 145.195312 103.046875 145.265625 102.878906 C 144.71875 102.367188 145.8125 102.09375 145.4375 101.550781 C 145.503906 101.515625 145.574219 101.480469 145.675781 101.480469 C 145.675781 101.308594 145.675781 101.175781 145.675781 101.003906 C 145.8125 100.9375 145.914062 100.832031 146.015625 100.765625 C 146.015625 100.664062 145.84375 100.699219 145.914062 100.527344 C 146.425781 99.742188 146.324219 98.722656 146.9375 98.039062 C 146.902344 97.632812 147.210938 97.527344 147.109375 97.222656 C 147.210938 97.222656 147.175781 97.050781 147.347656 97.121094 C 147.378906 96.609375 147.722656 96.0625 148.027344 95.6875 C 148.0625 95.210938 148.234375 94.90625 148.539062 94.699219 C 148.371094 94.496094 148.710938 94.359375 148.644531 94.054688 C 148.8125 94.019531 148.882812 93.917969 149.050781 93.882812 C 149.085938 93.714844 148.882812 93.746094 148.949219 93.542969 C 149.050781 93.472656 149.1875 93.441406 149.292969 93.371094 C 149.324219 93.203125 149.222656 93.234375 149.222656 93.101562 C 149.324219 93.066406 149.359375 92.964844 149.496094 92.996094 C 149.425781 92.519531 149.632812 92.28125 149.972656 92.179688 C 150.007812 92.007812 149.9375 91.90625 149.90625 91.769531 C 150.484375 91.601562 150.28125 90.917969 150.757812 90.75 C 150.585938 90.511719 150.894531 90.375 150.859375 90.101562 C 151.40625 89.898438 151.441406 89.179688 151.953125 88.941406 C 151.953125 88.773438 151.816406 88.738281 151.78125 88.601562 C 151.851562 88.328125 152.121094 88.226562 152.363281 88.125 C 152.15625 87.820312 152.496094 87.785156 152.464844 87.375 C 152.839844 87.410156 152.769531 87 153.113281 86.96875 C 153.144531 86.796875 153.042969 86.761719 153.042969 86.625 C 153.144531 86.59375 153.144531 86.457031 153.316406 86.523438 C 153.351562 86.355469 153.25 86.386719 153.25 86.25 C 153.726562 86.082031 153.691406 85.433594 154.167969 85.261719 C 154.203125 84.445312 155.328125 84.242188 155.398438 83.253906 C 156.011719 82.914062 156.082031 82.027344 156.96875 81.925781 C 156.558594 81.414062 157.34375 81.277344 157.546875 80.9375 C 157.648438 80.800781 157.71875 80.628906 157.820312 80.359375 C 157.992188 80.324219 158.09375 80.222656 158.230469 80.117188 C 158.058594 79.777344 158.605469 79.8125 158.570312 79.4375 C 158.910156 79.402344 159.015625 79.132812 159.253906 79.027344 C 159.21875 78.960938 159.183594 78.859375 159.183594 78.757812 C 159.902344 78.382812 160.105469 77.496094 160.925781 77.1875 C 160.925781 77.085938 160.925781 76.984375 160.925781 76.917969 C 161.230469 76.679688 161.539062 76.472656 161.742188 76.097656 C 162.152344 76.03125 162.425781 75.859375 162.425781 75.417969 C 162.734375 75.347656 162.765625 75.078125 163.109375 75.078125 C 163.140625 74.429688 163.960938 74.089844 164.539062 73.816406 C 164.675781 73.679688 164.4375 73.714844 164.472656 73.542969 C 165.429688 72.894531 166.210938 71.839844 167.203125 71.398438 C 167.339844 71.398438 167.132812 71.226562 167.269531 71.160156 C 167.953125 71.054688 167.953125 70.308594 168.703125 70.308594 C 168.839844 70.308594 168.636719 70.171875 168.703125 70.035156 C 169.453125 69.589844 170.101562 69.046875 170.886719 68.636719 C 171.023438 68.636719 170.988281 68.433594 171.058594 68.363281 C 173.308594 67.070312 175.355469 65.535156 177.878906 64.515625 C 177.984375 64.515625 177.914062 64.308594 177.984375 64.277344 C 178.871094 64.070312 179.277344 63.425781 180.335938 63.425781 C 180.679688 63.21875 180.847656 62.878906 181.496094 62.949219 C 181.769531 62.605469 182.417969 62.367188 182.828125 62.367188 C 183.101562 62.164062 183.441406 62.027344 183.917969 62.097656 C 184.703125 61.722656 185.625 61.484375 186.648438 61.347656 C 186.375 61.246094 186.238281 61.074219 185.964844 61.003906 C 185.863281 60.902344 186 60.902344 185.964844 60.734375 C 185.660156 60.597656 185.351562 60.496094 184.941406 60.460938 C 184.90625 60.289062 184.976562 60.1875 185.011719 60.050781 C 184.601562 60.050781 184.292969 59.8125 183.917969 59.644531 C 183.882812 59.507812 183.953125 59.507812 183.988281 59.40625 C 183.816406 59.234375 183.78125 59.269531 183.507812 59.234375 C 183.371094 58.6875 182.726562 58.65625 182.417969 58.3125 C 182.382812 58.109375 182.484375 58.007812 182.519531 57.835938 C 182.417969 57.699219 182.042969 57.835938 181.941406 57.734375 C 181.835938 57.566406 182.042969 57.460938 181.941406 57.222656 C 181.804688 57.054688 181.597656 56.953125 181.292969 56.953125 C 181.191406 56.578125 180.847656 56.441406 180.609375 56.203125 C 180.949219 55.828125 180.371094 55.589844 180.507812 55.28125 C 180.234375 55.246094 180.167969 55.007812 179.925781 54.941406 C 179.925781 54.769531 179.925781 54.601562 180.03125 54.53125 C 179.789062 54.429688 179.382812 54.15625 179.550781 53.78125 C 179.347656 53.714844 179.140625 53.273438 179.382812 53.101562 C 179.074219 52.523438 178.664062 51.808594 178.871094 50.953125 C 178.496094 50.582031 178.496094 49.488281 178.460938 48.875 C 178.460938 48.570312 178.628906 48.367188 178.628906 48.128906 C 178.628906 48.058594 178.527344 47.890625 178.527344 47.855469 C 178.496094 47.171875 178.835938 46.558594 178.800781 46.015625 C 178.871094 45.914062 178.9375 45.777344 179.074219 45.777344 C 178.699219 45.367188 179.3125 44.925781 179.175781 44.550781 C 179.3125 44.480469 179.449219 44.449219 179.519531 44.3125 C 179.519531 44.105469 179.347656 44.105469 179.414062 43.835938 C 179.484375 43.800781 179.550781 43.765625 179.652344 43.765625 C 179.519531 42.949219 180.269531 42.609375 180.574219 42.097656 C 180.335938 41.550781 180.78125 41.246094 181.15625 40.871094 C 181.085938 40.1875 181.769531 39.78125 182.316406 39.542969 C 182.347656 39.371094 182.144531 39.40625 182.214844 39.199219 C 182.621094 38.960938 182.757812 38.144531 183.542969 38.109375 C 183.578125 37.972656 183.441406 37.972656 183.476562 37.839844 C 183.816406 37.734375 184.089844 37.566406 184.394531 37.429688 C 184.363281 37.328125 184.226562 37.328125 184.292969 37.15625 C 185.351562 36.238281 186.851562 35.589844 188.457031 35.078125 C 188.695312 35.011719 188.898438 34.804688 189.136719 34.804688 C 189.273438 34.804688 189.410156 34.90625 189.546875 34.875 C 189.855469 34.804688 189.992188 34.535156 190.230469 34.464844 C 190.433594 34.398438 190.707031 34.5 190.980469 34.464844 C 191.457031 34.429688 191.96875 34.191406 192.480469 34.191406 C 193.335938 34.160156 194.152344 33.953125 194.902344 34.292969 C 195.894531 34.125 196.882812 34.398438 197.429688 34.804688 C 198.351562 34.90625 198.996094 35.28125 199.78125 35.488281 C 199.816406 35.554688 199.851562 35.65625 199.851562 35.761719 C 200.089844 35.761719 200.125 35.929688 200.429688 35.863281 C 200.363281 36.167969 200.703125 36.066406 200.839844 36.203125 C 201.011719 34.191406 201.148438 32.285156 202.273438 31.125 C 202.308594 30.957031 202.171875 30.957031 202.203125 30.785156 C 202.648438 30.683594 202.683594 30.242188 203.023438 30.035156 C 202.714844 29.832031 203.09375 29.457031 203.363281 29.457031 C 203.296875 29.046875 203.738281 28.742188 204.117188 28.605469 C 204.082031 28.535156 204.046875 28.433594 204.046875 28.332031 C 204.285156 28.367188 204.285156 28.164062 204.558594 28.230469 C 204.355469 27.582031 205.617188 27.515625 205.652344 26.730469 C 205.992188 26.390625 206.707031 26.425781 206.8125 25.878906 C 208.003906 25.539062 209.0625 24.585938 210.460938 24.210938 C 212.097656 23.734375 214.144531 23.628906 215.816406 23.460938 C 215.988281 23.425781 215.917969 23.5625 216.054688 23.5625 C 216.636719 23.359375 217.25 23.597656 217.726562 23.800781 C 218.207031 23.5625 218.546875 24.039062 219.160156 23.972656 C 219.5 24.515625 220.558594 24.347656 220.902344 24.890625 C 221.308594 24.824219 221.242188 25.230469 221.71875 25.128906 C 221.480469 25.402344 221.855469 25.335938 221.753906 25.675781 Z M 215.40625 25.335938 C 214.113281 24.960938 212.40625 25.402344 211.417969 25.914062 C 211.3125 25.914062 211.175781 25.914062 211.074219 25.914062 C 210.9375 26.21875 210.394531 26.117188 210.085938 26.253906 C 210.015625 26.289062 209.984375 26.425781 209.847656 26.492188 C 209.371094 26.695312 209.097656 27.070312 208.6875 27.242188 C 208.210938 27.445312 207.96875 27.789062 207.59375 28.058594 C 207.492188 28.164062 207.527344 28.058594 207.355469 28.058594 C 207.015625 28.433594 206.808594 28.945312 206.195312 29.046875 C 206.164062 29.183594 206.296875 29.183594 206.265625 29.320312 C 205.71875 29.492188 205.683594 30.207031 205.035156 30.308594 C 205.140625 30.308594 205.171875 30.410156 205.140625 30.546875 C 204.796875 30.785156 204.25 31.023438 204.320312 31.535156 C 203.84375 31.773438 203.875 32.453125 203.46875 32.761719 C 202.886719 34.5 202.375 35.726562 202.375 37.90625 C 202.511719 38.078125 202.957031 38.078125 202.785156 38.382812 C 203.332031 38.417969 203.261719 38.960938 203.363281 39.234375 C 203.535156 39.199219 203.570312 39.304688 203.707031 39.304688 C 203.910156 39.984375 204.183594 40.425781 204.183594 41.074219 C 204.558594 40.972656 204.96875 40.90625 205.34375 40.800781 C 205.34375 40.664062 205.34375 40.597656 205.445312 40.5625 C 206.878906 39.949219 208.347656 39.371094 209.710938 38.722656 C 209.984375 38.722656 209.949219 38.691406 210.1875 38.722656 C 210.699219 38.179688 211.621094 38.007812 212.507812 37.804688 C 215.953125 36.851562 219.980469 35.894531 223.699219 35.554688 C 223.628906 35.28125 223.765625 35.179688 223.867188 35.042969 C 223.765625 34.976562 223.59375 35.011719 223.628906 34.804688 C 223.664062 34.054688 223.492188 32.964844 223.390625 32.285156 C 222.949219 31.707031 222.878906 30.886719 222.402344 30.445312 C 222.402344 30.34375 222.402344 30.273438 222.46875 30.207031 C 221.957031 29.96875 221.890625 29.285156 221.445312 28.980469 C 221.480469 28.910156 221.515625 28.878906 221.515625 28.742188 C 221.445312 28.640625 221.105469 28.777344 221.105469 28.570312 C 221.277344 28.230469 220.730469 28.128906 220.457031 27.992188 C 220.457031 27.890625 220.523438 27.855469 220.523438 27.753906 C 220.421875 27.753906 220.285156 27.753906 220.183594 27.753906 C 220.117188 27.582031 220.21875 27.550781 220.117188 27.414062 C 220.011719 27.414062 219.875 27.414062 219.773438 27.414062 C 219.773438 26.765625 218.785156 27.140625 218.785156 26.492188 C 217.761719 26.1875 217.046875 25.574219 215.78125 25.503906 C 215.75 25.4375 215.714844 25.402344 215.714844 25.265625 C 215.613281 25.199219 215.578125 25.367188 215.40625 25.335938 Z M 215.40625 25.335938 " fill-opacity="1" fill-rule="evenodd"/></g></svg>